<?xml version="1.0" encoding="utf-8"?>
<!-- Generator: Adobe Illustrator 23.0.2, SVG Export Plug-In . SVG Version: 6.00 Build 0)  -->
<svg version="1.1" id="Layer_1" xmlns="http://www.w3.org/2000/svg" xmlns:xlink="http://www.w3.org/1999/xlink" x="0px" y="0px"
	 viewBox="0 0 200 90" style="enable-background:new 0 0 200 90;" xml:space="preserve">
<style type="text/css">
	.st0{fill:#EE4023;}
	.st1{fill:#49BFB5;}
	.st2{fill-rule:evenodd;clip-rule:evenodd;fill:#3F949D;}
	.st3{fill-rule:evenodd;clip-rule:evenodd;fill:#49BFB5;}
	.st4{fill-rule:evenodd;clip-rule:evenodd;fill:#BC222C;}
	.st5{fill-rule:evenodd;clip-rule:evenodd;fill:#EE4023;}
	.st6{fill-rule:evenodd;clip-rule:evenodd;fill:#133E55;}
	.st7{fill-rule:evenodd;clip-rule:evenodd;fill:#FCB713;}
</style>
<g>
	<path class="st0" d="M158.4,57.6c0-0.1,0-0.2-0.1-0.3c0-0.1,0-0.2-0.1-0.3c0-0.1,0-0.2,0-0.3c0-0.1,0-0.2,0-0.4c0-0.5,0-1,0.1-1.5
		c0-0.1,0.1-0.3,0.1-0.4c0-0.1,0.1-0.3,0.1-0.4l0-0.1l0,0l0,0l0,0l0,0l0,0c0-0.1,0-0.1,0.1-0.2c0-0.1,0.1-0.2,0.1-0.4
		c0.1-0.1,0.1-0.3,0.2-0.4c0.1-0.1,0.1-0.3,0.2-0.4c0.1-0.3,0.3-0.5,0.4-0.8c0.3-0.5,0.7-1,1-1.5c0.3-0.5,0.7-0.9,1-1.4
		c0.3-0.4,0.6-0.9,0.7-1.3c0.1-0.1,0.1-0.2,0.1-0.3c0-0.1,0-0.1,0.1-0.2l0,0l0,0c0,0,0,0,0,0l0,0l0,0l0-0.1c0-0.1,0.1-0.2,0.1-0.4
		c0-0.1,0.1-0.2,0.1-0.3c0.1-0.4,0.2-0.8,0.2-1.2c0-0.4,0-0.7,0-1c0-0.3-0.1-0.6-0.1-0.8c0-0.1-0.1-0.2-0.1-0.3
		c-3.1-0.4-6.3,2.1-7.5,5.9c-1.3,4.1,0.1,8.2,3.2,9.5C158.5,57.9,158.5,57.7,158.4,57.6 M164.2,43.1c0.1,0.1,0.1,0.3,0.1,0.5
		c0,0.1,0,0.2,0.1,0.3c0,0.1,0,0.2,0.1,0.3c0,0.1,0,0.2,0,0.3c0,0.1,0,0.2,0,0.4c0,0.5,0,1-0.1,1.5c0,0.1-0.1,0.3-0.1,0.4
		c0,0.1-0.1,0.2-0.1,0.4l0,0.1l0,0l0,0l0,0l0,0.1c0,0.1,0,0.1-0.1,0.2c0,0.1-0.1,0.3-0.2,0.4c-0.1,0.1-0.1,0.3-0.2,0.4
		c-0.1,0.1-0.1,0.3-0.2,0.4c-0.1,0.3-0.3,0.5-0.4,0.8c-0.3,0.5-0.7,1-1,1.5c-0.3,0.5-0.7,0.9-1,1.4c-0.1,0.1-0.1,0.2-0.2,0.3
		c-0.1,0.1-0.1,0.2-0.2,0.3c-0.1,0.1-0.1,0.2-0.2,0.3c-0.1,0.1-0.1,0.2-0.2,0.3c-0.1,0.1-0.1,0.2-0.1,0.3c0,0.1,0,0.1-0.1,0.2l0,0
		l0,0c0,0,0,0,0,0l0,0l0,0.1c0,0.1-0.1,0.2-0.1,0.3c0,0.1-0.1,0.2-0.1,0.3c-0.1,0.4-0.2,0.8-0.2,1.2c0,0.4,0,0.7,0,1
		c0,0.3,0.1,0.6,0.1,0.8c0,0.1,0.1,0.2,0.1,0.3c3.1,0.4,6.3-2.1,7.5-5.9C168.8,48.5,167.3,44.3,164.2,43.1z M167.7,72.7l2.2,0.5l0,0
		l0,0l0,0l0,0l0,0c0,0,0.1-0.1,0.1-0.1c0.1-0.1,0.1-0.1,0.2-0.2c0.1-0.1,0.1-0.2,0.2-0.2c0.1-0.1,0.2-0.1,0.2-0.2
		c0.2-0.1,0.3-0.3,0.5-0.4c0.3-0.2,0.7-0.5,1-0.7c0.3-0.2,0.6-0.4,0.9-0.6c0.3-0.2,0.6-0.4,0.8-0.6c0.1-0.1,0.1-0.1,0.2-0.2
		c0,0,0.1-0.1,0.1-0.1l0,0l0,0c0,0,0,0,0,0l0,0l0,0l0,0c0.1-0.1,0.1-0.1,0.2-0.2c0-0.1,0.1-0.1,0.1-0.2c0.2-0.2,0.3-0.5,0.5-0.7
		c0.1-0.2,0.2-0.5,0.3-0.7c0.1-0.2,0.1-0.4,0.1-0.5c0-0.1,0-0.1,0-0.2c-1.8-1-4.5-0.2-6.2,1.8C168.2,70.2,167.7,71.5,167.7,72.7z
		 M179.3,63.1c0.7-1.6,1.4-3.3,2.1-4.9c2.3-5.3,4.6-10.6,6.9-15.9L167.7,38l-0.5,1.7c-0.3,0.8,0,1.8,0.8,2.3c0.4,0.3,0.7,0.6,1,0.9
		c0.6,0.6,1.6,0.8,2.4,0.4l2-1c1-0.5,2.3-0.1,2.8,0.9c0.5,1,0.1,2.3-0.9,2.8l-2,1c-0.8,0.4-1.2,1.3-1.1,2.2c0.1,0.4,0.1,0.9,0.1,1.3
		c0,0.9,0.6,1.7,1.4,2l2.1,0.7c1.1,0.4,1.7,1.5,1.3,2.6c-0.4,1.1-1.5,1.7-2.6,1.3l-2.1-0.7c-0.9-0.3-1.8,0-2.3,0.8
		c-0.3,0.4-0.6,0.7-0.9,1c-0.6,0.6-0.8,1.6-0.4,2.4l1,2c0.5,1,0.1,2.3-0.9,2.8c-1,0.5-2.3,0.1-2.8-0.9l-1-2
		c-0.4-0.8-1.3-1.2-2.2-1.1c-0.4,0.1-0.9,0.1-1.3,0.1c-0.9,0-1.7,0.6-2,1.4l-0.7,2.1c-0.4,1.1-1.5,1.7-2.6,1.3l0,0
		c-1.1-0.4-1.7-1.5-1.3-2.6l0.7-2.1c0.3-0.8,0-1.8-0.8-2.3c-0.4-0.3-0.7-0.6-1-0.9c-0.6-0.6-1.6-0.8-2.4-0.4l-2,1
		c-1,0.5-2.3,0.1-2.8-0.9h0c-0.5-1-0.1-2.3,0.9-2.8l2-1c0.8-0.4,1.2-1.3,1.1-2.2c-0.1-0.4-0.1-0.9-0.1-1.3c0-0.9-0.6-1.7-1.4-2
		l-2.1-0.7c-1.1-0.4-1.7-1.5-1.3-2.6c0.4-1.1,1.5-1.7,2.6-1.3l2.1,0.7c0.9,0.3,1.8,0,2.3-0.8c0.3-0.4,0.6-0.7,0.9-1
		c0.6-0.6,0.8-1.6,0.4-2.4l-1-2c-0.5-1-0.1-2.3,0.9-2.8c1-0.5,2.3-0.1,2.8,0.9l1,2c0.4,0.8,1.3,1.2,2.2,1.1c0.4-0.1,0.9-0.1,1.3-0.1
		c0.9,0,1.7-0.6,2-1.4l0.4-1.2l-21.9-4.5c0,5.8,0,11.6,0,17.4c0,5.8-0.1,11.5-0.2,17.3c5.5,1.1,11.1,2.3,16.6,3.4l4,0.8
		c0.2-0.1,0.4-0.2,0.6-0.2l1.5-0.1c0.6-0.1,1.1-0.5,1.2-1.1c0.1-0.3,0.2-0.6,0.3-0.9c0.2-0.6,0.1-1.2-0.4-1.6l-1.2-0.9
		c-0.6-0.5-0.7-1.4-0.2-2c0.5-0.6,1.4-0.7,2-0.2l1.2,0.9c0.5,0.4,1.1,0.4,1.6,0.1c0.3-0.2,0.5-0.3,0.8-0.4c0.6-0.3,0.9-0.8,0.8-1.4
		l-0.1-1.5c-0.1-0.8,0.5-1.5,1.3-1.5c0.8-0.1,1.4,0.5,1.5,1.3l0.1,1.5c0.1,0.6,0.5,1.1,1.1,1.2c0.3,0.1,0.6,0.2,0.9,0.3
		c0.6,0.2,1.2,0.1,1.6-0.4l0.9-1.2C177.9,62.9,178.7,62.8,179.3,63.1z M174.7,74.2c0.7-1.8,1.4-3.5,2.2-5.3
		c-0.2-0.4-0.4-0.8-0.8-1.1c0,0.1,0,0.2,0,0.3c0,0.1,0,0.1,0,0.2c0,0.1,0,0.1,0,0.2c0,0.1,0,0.1-0.1,0.2c0,0.1-0.1,0.1-0.1,0.2
		c-0.1,0.3-0.3,0.6-0.5,0.9c-0.1,0.1-0.1,0.2-0.2,0.2c-0.1,0.1-0.1,0.1-0.2,0.2l0,0.1l0,0l0,0l0,0l0,0c0,0-0.1,0.1-0.1,0.1
		c-0.1,0.1-0.1,0.2-0.2,0.2c-0.1,0.1-0.1,0.1-0.2,0.2c-0.1,0.1-0.2,0.1-0.2,0.2c-0.2,0.1-0.3,0.3-0.5,0.4c-0.3,0.2-0.7,0.5-1,0.7
		c-0.3,0.2-0.6,0.4-0.9,0.6c-0.1,0.1-0.1,0.1-0.2,0.2c-0.1,0.1-0.1,0.1-0.2,0.2c-0.1,0.1-0.1,0.1-0.2,0.2l0,0L174.7,74.2z"/>
</g>
<g>
	<path class="st1" d="M191.4,39.7L139.8,29c-1.4-0.3-2.1-1.9-1.4-3.2l4.2-7.4l7.3,1.5l2.4-4.1l32.8,6.8l0.6,4.7l7.3,1.5l1,8.4
		C194.2,38.8,192.9,40,191.4,39.7"/>
</g>
<g>
	<path class="st1" d="M172.9,78.5c-5.3-1.1-10.5-2.2-15.8-3.3c-5.3-1.1-10.5-2.2-15.8-3.3c0,1.8-0.1,3.6-0.1,5.4
		c4.9,1,9.9,2,14.8,3.1c4.9,1,9.9,2,14.8,3.1C171.6,81.9,172.2,80.2,172.9,78.5"/>
</g>
<g>
	<path class="st1" d="M24.7,21.3L24.7,21.3c-1,1.5-2.7,2.1-4.4,2.1c-2.6,0-4.9-1.5-4.9-4.2c0-4.8,5.8-4.8,9.3-4.8
		c0-1.5-1.2-2.5-2.7-2.5c-1.4,0-2.5,0.6-3.4,1.6l-2.3-2.3c1.6-1.5,3.8-2.2,6.1-2.2c4.9,0,6.3,2.5,6.3,7.1v7h-3.9V21.3z M23.6,17
		c-1.3,0-4.2,0.1-4.2,2c0,1,1.1,1.5,2,1.5c1.7,0,3.2-0.9,3.2-2.6V17H23.6z"/>
	<path class="st1" d="M44.5,23h-4.1v-1.9h-0.1c-0.6,1.1-2,2.2-4,2.2c-4.3,0-5.1-2.8-5.1-6.5V9.3h4.2V16c0,1.6,0,3.6,2.2,3.6
		c2.2,0,2.5-1.7,2.5-3.5V9.3h4.2V23z"/>
	<path class="st1" d="M56.8,12.7h-3.7v4.6c0,1.5,0.2,2.5,2,2.5c0.5,0,1.4-0.1,1.7-0.4v3.5c-0.9,0.3-2,0.4-3,0.4c-2.8,0-5-1.2-5-4.2
		v-6.5h-2.7V9.3h2.7V5.2h4.2v4.1h3.7V12.7z"/>
	<path class="st1" d="M66.1,8.9c4.2,0,7.6,2.8,7.6,7.2c0,4.4-3.4,7.2-7.6,7.2s-7.6-2.8-7.6-7.2C58.5,11.7,61.9,8.9,66.1,8.9z
		 M66.1,19.6c2.1,0,3.4-1.4,3.4-3.5s-1.3-3.5-3.4-3.5s-3.4,1.4-3.4,3.5S64,19.6,66.1,19.6z"/>
	<path class="st1" d="M76.2,9.3h4.1v1.9h0.1c0.6-1.1,2-2.2,4-2.2c1.9,0,3.5,0.8,4.2,2.5c1-1.8,2.3-2.5,4.4-2.5c3.7,0,4.9,2.6,4.9,6
		V23h-4.2v-8c0-1.3-0.5-2.3-1.9-2.3c-2,0-2.6,1.4-2.6,3.1V23h-4.2v-7.3c0-1,0.1-3.1-1.9-3.1c-2.2,0-2.5,1.7-2.5,3.5V23h-4.2V9.3z"/>
	<path class="st1" d="M109.4,21.3L109.4,21.3c-1,1.5-2.7,2.1-4.4,2.1c-2.6,0-4.9-1.5-4.9-4.2c0-4.8,5.8-4.8,9.3-4.8
		c0-1.5-1.2-2.5-2.7-2.5c-1.4,0-2.5,0.6-3.5,1.6l-2.3-2.3c1.6-1.5,3.8-2.2,6.1-2.2c4.9,0,6.3,2.5,6.3,7.1v7h-3.9V21.3z M108.4,17
		c-1.3,0-4.2,0.1-4.2,2c0,1,1.1,1.5,2,1.5c1.7,0,3.2-0.9,3.2-2.6V17H108.4z"/>
	<path class="st1" d="M125.4,12.7h-3.7v4.6c0,1.5,0.2,2.5,2,2.5c0.5,0,1.4-0.1,1.7-0.4v3.5c-0.9,0.3-2,0.4-3,0.4c-2.8,0-5-1.2-5-4.2
		v-6.5h-2.7V9.3h2.7V5.2h4.2v4.1h3.7V12.7z"/>
	<path class="st1" d="M129.7,2.5c1.4,0,2.5,1.1,2.5,2.5c0,1.4-1.1,2.5-2.5,2.5s-2.5-1.1-2.5-2.5C127.2,3.6,128.3,2.5,129.7,2.5z
		 M127.6,9.3h4.2V23h-4.2V9.3z"/>
</g>
<g>
	<polygon class="st2" points="87.8,70.6 92.8,82.2 78,82.2 78,82.1 	"/>
</g>
<g>
	<polygon class="st3" points="47.5,82.2 41.9,82.2 62.1,35.4 72.5,35.4 77.6,47.1 68.9,57.2 67.3,53.3 63.2,63.8 	"/>
</g>
<g>
	<path class="st4" d="M77.9,47.8l1,2.3l-8.7,10.2L69.2,58L77.9,47.8z M51.5,82.2h-3l15.3-17.9h3L51.5,82.2z"/>
</g>
<g>
	<path class="st5" d="M59.9,73.6l-3.4,8.6h-4L59.9,73.6z M68,73.1h-7.7l7.5-8.8h3.9l-1.2-3.1L79.2,51l2.6,5.9L68,73.1z"/>
</g>
<g>
	<polygon class="st6" points="72.6,71.4 70.6,71.4 83.7,56.1 84.4,57.7 	"/>
</g>
<g>
	<polygon class="st3" points="74.3,73.1 73.3,73.1 83.6,61 85.2,64.6 75.5,76 	"/>
</g>
<g>
	<polygon class="st3" points="85.6,65.6 86.4,67.4 76.6,78.8 75.9,76.9 	"/>
</g>
<g>
	<polygon class="st2" points="86.7,68 87.5,69.8 77.6,81.3 76.9,79.5 	"/>
</g>
<g>
	<polygon class="st2" points="92.8,69.8 82.1,45 96.6,38.7 101.4,42.1 	"/>
</g>
<g>
	<polygon class="st3" points="127.1,36.9 141.6,70.3 127.5,76.4 117.2,69.1 	"/>
</g>
<g>
	<polygon class="st3" points="94.7,74.1 93.3,70.9 102,42.5 104,43.9 	"/>
</g>
<g>
	<path class="st3" d="M105.6,61l-3.2-2.2l2.2,5.2l-6,19.5l-3.6-8.2l9.5-30.8l5,3.5L105.6,61z M112.9,37.4l-2.1-4.8l4.1-1.8
		L112.9,37.4z"/>
</g>
<g>
	<path class="st6" d="M106.4,61.2l0.9,2.1l-6,19.5l-0.9-2.1L106.4,61.2z M108.9,58.5l-1.3-0.9l4-13.1l1.3,0.9L108.9,58.5z
		 M115.6,36.8l-0.9-2.1l2.6-8.3l1.8-0.8L115.6,36.8z"/>
</g>
<g>
	<path class="st7" d="M107.2,69.6l2.2,5l-3.4,11.1l-4.3,1.9L107.2,69.6z M112.1,65.6l-3.1-2.1l4-13.1l3.1,2.1L112.1,65.6z M117.5,48
		l-2.2-5l4.4-14.4l3.2-1.4l0.6,1.3L117.5,48z"/>
</g>
<g>
	<path class="st5" d="M109.9,75.9l1.1,2.5l-1.8,5.9l-2.1,0.9L109.9,75.9z M114.4,67.2l-1.5-1.1l4-13.1l1.5,1.1L114.4,67.2z
		 M119.2,51.9l-1.1-2.5l6-19.5l1.1,2.5L119.2,51.9z"/>
</g>
<g>
	<path class="st4" d="M111.4,79.3l1.1,2.5l-0.4,1.2l-2.1,0.9L111.4,79.3z M116.5,68.6l-1.5-1.1l4-13.1l1.5,1.1L116.5,68.6z
		 M120.7,55.3l-1.1-2.5l6-19.5l1.1,2.5L120.7,55.3z"/>
</g>
<g>
	<polygon class="st2" points="23.7,36.1 24.6,34 26.4,34.8 	"/>
</g>
<g>
	<polygon class="st3" points="33.5,57 35.1,57.6 37.2,58.6 46.3,62.5 41.3,74 24.8,66.8 18.1,82.2 6,76.9 7.7,72.9 8.8,70.4 
		9.6,68.6 	"/>
</g>
<g>
	<polygon class="st2" points="52.9,51 49.6,58.5 43.2,55.7 41,54.8 39.5,54.1 54.3,46.9 54.6,47 53.9,48.5 	"/>
</g>
<g>
	<polygon class="st2" points="21.9,40.3 23.1,37.5 23.3,37.1 27.3,35.1 27.7,35.3 30.1,36.3 	"/>
</g>
<g>
	<polygon class="st3" points="17.8,49.7 20.6,43.2 21.4,41.4 31,36.8 32.6,37.4 38.1,39.8 	"/>
</g>
<g>
	<polygon class="st6" points="19.6,51.5 20.3,49.9 20.5,49.3 42.4,38.7 42.9,38.9 44.2,39.5 	"/>
</g>
<g>
	<polygon class="st7" points="32.4,51 31.8,50.7 31.5,51.4 13.2,60.3 14.2,57.9 15.2,55.8 15.3,55.3 42.9,41.9 43.3,42.1 45.1,42.9 
		47.2,43.8 	"/>
</g>
<g>
	<path class="st5" d="M30.9,52.7L30.4,54l-0.5,1.2l-18.3,8.9l0.5-1.2l0.6-1.3L30.9,52.7z M35.6,52.4l-1-0.5l-1.1-0.5l14.8-7.2
		l1.1,0.5l1,0.5L35.6,52.4z"/>
</g>
<g>
	<path class="st4" d="M30.5,55.6l2.1,0.9L10,67.6l1.1-2.5L30.5,55.6z M38.6,53.7l-2.1-0.9l14.8-7.2l2.1,0.9L38.6,53.7z"/>
</g>
</svg>
