<?xml version="1.0" encoding="utf-8"?>
<!-- Generator: Adobe Illustrator 23.0.2, SVG Export Plug-In . SVG Version: 6.00 Build 0)  -->
<svg version="1.1" id="Layer_1" xmlns="http://www.w3.org/2000/svg" xmlns:xlink="http://www.w3.org/1999/xlink" x="0px" y="0px"
	 viewBox="0 0 96 96" style="enable-background:new 0 0 96 96;" xml:space="preserve">
<style type="text/css">
	.st0{fill:#FFFFFF;}
	.st1{fill:#F4F4F4;}
</style>
<path class="st0" d="M75.3,31.5H20.7c0.1-5.3,4.4-9.5,9.7-9.5H47l2.7-10.6c0.4-1.4,1.7-2.4,3.1-2.4h14.6c1.8,0,3.2,1.4,3.2,3.2
	c0,1.8-1.5,3.2-3.2,3.2H55.3l-1.7,6.5h12C70.9,21.9,75.2,26.2,75.3,31.5z"/>
<path class="st1" d="M24.7,37.9l7.7,37.4c0.9,4.5,4.9,7.7,9.5,7.7h12.4c4.6,0,8.6-3.3,9.5-7.8l7.5-37.4H24.7z M38.3,57.3
	c-1.8,0-3.2-1.5-3.2-3.2c0-1.8,1.5-3.2,3.2-3.2c1.8,0,3.2,1.5,3.2,3.2C41.5,55.8,40.1,57.3,38.3,57.3z M48,70.2
	c-3.6,0-6.5-2.9-6.5-6.5h12.9C54.5,67.3,51.6,70.2,48,70.2z M57.7,57.3c-1.8,0-3.2-1.5-3.2-3.2c0-1.8,1.4-3.2,3.2-3.2
	c1.8,0,3.2,1.5,3.2,3.2C60.9,55.8,59.5,57.3,57.7,57.3z"/>
</svg>
