<?xml version="1.0" encoding="utf-8"?>
<!-- Generator: Adobe Illustrator 23.0.2, SVG Export Plug-In . SVG Version: 6.00 Build 0)  -->
<svg version="1.1" id="Layer_1" xmlns="http://www.w3.org/2000/svg" xmlns:xlink="http://www.w3.org/1999/xlink" x="0px" y="0px"
	 viewBox="0 0 512 512" style="enable-background:new 0 0 512 512;" xml:space="preserve">
<style type="text/css">
	.st0{opacity:5.000000e-02;}
	.st1{fill:#EE4023;}
	.st2{fill:#074257;}
</style>
<g class="st0">
	<g>
		<path class="st1" d="M213,300.1c-0.1-0.5-0.3-1.1-0.4-1.7c-0.1-0.6-0.2-1.2-0.3-1.8c-0.1-0.6-0.1-1.2-0.2-1.9
			c-0.1-0.6-0.1-1.3-0.1-2c-0.1-2.7,0.2-5.6,0.7-8.6c0.2-0.8,0.3-1.5,0.5-2.3c0.2-0.8,0.4-1.5,0.6-2.3l0.1-0.6l0-0.1l0,0l0.1-0.2
			l0-0.1l0.1-0.3c0.1-0.4,0.2-0.7,0.3-1.1c0.2-0.7,0.4-1.4,0.8-2.2c0.3-0.8,0.7-1.7,1-2.5c0.4-0.8,0.7-1.5,1.1-2.3
			c0.8-1.5,1.6-3,2.5-4.4c1.8-2.9,3.8-5.6,5.7-8.2c1.9-2.6,3.8-5.1,5.4-7.6c1.6-2.5,3.1-5,4.2-7.4c0.3-0.6,0.5-1.2,0.8-1.8
			c0.1-0.3,0.3-0.6,0.4-0.9l0.1-0.2l0-0.1c0,0-0.1,0.2,0,0.1l0,0l0-0.1l0.2-0.5c0.2-0.7,0.5-1.4,0.7-2c0.2-0.6,0.3-1.2,0.5-1.8
			c0.7-2.4,1.1-4.8,1.3-6.9c0.2-2.2,0.3-4.1,0.1-5.9c-0.1-1.7-0.4-3.2-0.7-4.4c-0.1-0.6-0.3-1.1-0.4-1.5
			c-17.3-2.1-35.6,11.7-42.5,33.1c-7.4,22.9,0.6,46.1,18,53.3C213.5,301.9,213.2,301,213,300.1 M245.9,218.3
			c0.3,0.8,0.6,1.8,0.8,2.7c0.1,0.5,0.3,1.1,0.4,1.7c0.1,0.6,0.2,1.2,0.3,1.8c0.1,0.6,0.1,1.2,0.2,1.9c0.1,0.6,0.1,1.3,0.1,2
			c0.1,2.7-0.2,5.6-0.7,8.6c-0.1,0.8-0.3,1.6-0.5,2.4c-0.2,0.7-0.4,1.4-0.5,2.1l-0.1,0.5l0,0.1l0,0l0,0.1l-0.1,0.4
			c-0.1,0.4-0.3,0.8-0.4,1.2c-0.3,0.8-0.5,1.6-0.8,2.4c-0.3,0.8-0.6,1.6-1,2.4c-0.4,0.8-0.7,1.5-1.1,2.3c-0.8,1.5-1.6,3-2.5,4.4
			c-1.8,2.9-3.8,5.6-5.7,8.2c-1.9,2.6-3.8,5.1-5.4,7.6c-0.4,0.6-0.8,1.2-1.2,1.9c-0.4,0.6-0.8,1.2-1.1,1.8c-0.3,0.6-0.7,1.2-1,1.9
			c-0.3,0.6-0.6,1.2-0.8,1.7c-0.3,0.5-0.6,1.3-0.8,2c-0.1,0.4-0.3,0.7-0.4,1l-0.1,0.3l0,0.1c0,0.1,0,0,0,0l0,0.1l-0.2,0.5
			c-0.2,0.6-0.4,1.3-0.6,1.9c-0.2,0.6-0.4,1.2-0.5,1.9c-0.7,2.4-1.1,4.8-1.3,6.9c-0.2,2.2-0.3,4.1-0.1,5.9c0.2,1.7,0.4,3.2,0.7,4.4
			c0.1,0.5,0.3,1,0.4,1.4c17.3,2.1,35.6-11.7,42.6-33.1C271.4,248.7,263.3,225.4,245.9,218.3z M265.2,385.5l12.5,2.6l0,0l0,0
			l0.1-0.1l0,0l0.1-0.1c0.2-0.2,0.3-0.4,0.5-0.6c0.3-0.4,0.6-0.8,1.1-1.2c0.4-0.4,0.8-0.9,1.3-1.3c0.4-0.4,0.8-0.8,1.3-1.2
			c0.9-0.8,1.8-1.5,2.7-2.2c1.8-1.4,3.8-2.6,5.6-3.8c1.9-1.2,3.6-2.3,5.3-3.5c1.6-1.2,3.2-2.4,4.5-3.6c0.4-0.3,0.6-0.6,1-1
			c0.2-0.2,0.3-0.3,0.5-0.5l0.1-0.1l0,0c0,0-0.1,0.1,0,0l0,0l0.1-0.1l0.2-0.3c0.3-0.4,0.6-0.8,0.9-1.1c0.2-0.3,0.5-0.7,0.8-1
			c1-1.4,1.9-2.7,2.5-4c0.7-1.3,1.2-2.5,1.5-3.7c0.3-1.1,0.5-2.1,0.6-3c0-0.4,0.1-0.7,0.1-1.1c-10.4-5.6-25.3-1.4-35,10.4
			C268.2,371.3,265.5,378.6,265.2,385.5z M330.6,331.1c3.9-9.2,7.8-18.5,11.7-27.7c12.7-30,25.8-60,39-89.9l-116-24l-3.1,9.4
			c-1.6,4.8,0.2,9.9,4.3,13c2,1.5,3.9,3.1,5.7,4.9c3.6,3.5,9,4.5,13.5,2.2l11.1-5.6c5.7-2.9,12.7-0.6,15.6,5.1
			c2.9,5.7,0.6,12.7-5.1,15.6l-11.1,5.6c-4.5,2.3-6.9,7.2-6.2,12.2c0.4,2.5,0.6,5,0.6,7.5c0.1,5,3.2,9.5,8,11.1l11.8,3.8
			c6.1,2,9.4,8.5,7.5,14.6c-2,6.1-8.5,9.4-14.6,7.5l-11.8-3.8c-4.8-1.6-9.9,0.2-13,4.3c-1.5,2-3.1,3.9-4.9,5.7
			c-3.5,3.6-4.5,9-2.2,13.5l5.6,11.1c2.9,5.7,0.6,12.7-5.1,15.6c-5.7,2.9-12.7,0.6-15.6-5.1l-5.6-11.1c-2.3-4.5-7.2-6.9-12.2-6.2
			c-2.5,0.4-5,0.6-7.5,0.6c-5,0.1-9.5,3.2-11.1,8l-3.8,11.8c-2,6.1-8.5,9.4-14.6,7.5l0,0c-6.1-2-9.4-8.5-7.5-14.6l3.8-11.8
			c1.6-4.8-0.2-9.9-4.3-13c-2-1.5-3.9-3.1-5.7-4.9c-3.6-3.5-9-4.5-13.5-2.2l-11.1,5.6c-5.7,2.9-12.7,0.6-15.6-5.1h0
			c-2.9-5.7-0.6-12.7,5.1-15.6l11.1-5.6c4.5-2.3,6.9-7.2,6.2-12.2c-0.4-2.5-0.6-5-0.6-7.5c-0.1-5-3.2-9.5-8-11.1l-11.8-3.8
			c-6.1-2-9.4-8.5-7.5-14.6c2-6.1,8.5-9.4,14.6-7.5l11.8,3.8c4.8,1.6,9.9-0.2,13-4.3c1.5-2,3.1-3.9,4.9-5.7c3.5-3.6,4.5-9,2.2-13.5
			l-5.6-11.1c-2.9-5.7-0.6-12.7,5.1-15.6c5.7-2.9,12.7-0.6,15.6,5.1l5.6,11.1c2.3,4.5,7.2,6.9,12.2,6.2c2.5-0.4,5-0.6,7.5-0.6
			c5-0.1,9.5-3.2,11.1-8l2.3-7l-123.4-25.5c0.1,32.7,0.3,65.3,0.1,97.9c-0.2,32.6-0.7,65.1-1.2,97.7c31.2,6.4,62.3,12.9,93.5,19.3
			l22.6,4.7c0.9-0.5,2-0.9,3.1-1l8.4-0.8c3.4-0.3,6.1-2.8,6.9-6.2c0.4-1.7,0.9-3.3,1.5-4.9c1.2-3.2,0.3-6.8-2.3-8.9l-6.5-5.3
			c-3.4-2.7-3.9-7.7-1.1-11.1c2.8-3.4,7.7-3.9,11.1-1.1l6.5,5.3c2.6,2.2,6.3,2.3,9.2,0.5c1.4-0.9,3-1.7,4.5-2.4c3.1-1.4,5-4.6,4.7-8
			l-0.8-8.4c-0.4-4.3,2.7-8.2,7.1-8.6c4.3-0.4,8.2,2.7,8.6,7.1l0.8,8.4c0.3,3.4,2.8,6.1,6.2,6.9c1.7,0.4,3.3,0.9,4.9,1.5
			c3.2,1.2,6.8,0.3,9-2.3l5.3-6.5C323.2,330.1,327.3,329.4,330.6,331.1z M304.7,393.6c4.1-9.9,8.2-19.9,12.3-29.8
			c-1.1-2.3-2.5-4.4-4.3-6.1c0,0.6-0.1,1.2-0.2,1.9c-0.1,0.4-0.1,0.8-0.2,1.2c-0.1,0.4-0.2,0.8-0.3,1.2c-0.1,0.4-0.2,0.8-0.3,1.2
			c-0.1,0.4-0.3,0.8-0.4,1.3c-0.6,1.7-1.5,3.5-2.6,5.3c-0.3,0.5-0.6,0.9-0.9,1.4c-0.3,0.4-0.6,0.8-0.9,1.2l-0.2,0.3l-0.1,0.1l0,0
			l-0.1,0.1l-0.2,0.2c-0.2,0.2-0.4,0.4-0.5,0.6c-0.4,0.4-0.7,0.9-1.1,1.3c-0.4,0.4-0.8,0.8-1.2,1.2c-0.4,0.4-0.8,0.8-1.3,1.2
			c-0.9,0.8-1.8,1.5-2.7,2.2c-1.8,1.4-3.7,2.6-5.6,3.8c-1.9,1.2-3.6,2.3-5.3,3.5c-0.4,0.3-0.8,0.6-1.2,0.9c-0.4,0.3-0.8,0.6-1.2,0.9
			c-0.4,0.3-0.7,0.6-1.1,0.9l-0.1,0.1L304.7,393.6z"/>
	</g>
	<g>
		<path class="st2" d="M399.3,199.1l-291.4-60.2c-8-1.7-12.1-10.7-8-17.8l23.9-41.5l41,8.5L178.6,65l185.1,38.2l3.5,26.7l41,8.5
			l5.5,47.5C414.6,194.1,407.3,200.7,399.3,199.1"/>
	</g>
	<g>
		<path class="st2" d="M294.7,418.3c-29.6-6.1-59.2-12.2-88.8-18.3c-29.6-6.1-59.2-12.2-88.8-18.3c-0.3,10.1-0.6,20.2-0.8,30.3
			c27.9,5.8,55.8,11.5,83.6,17.3c27.9,5.8,55.8,11.5,83.6,17.3C287.2,437.1,290.9,427.7,294.7,418.3"/>
	</g>
</g>
</svg>
