<?xml version="1.0" encoding="utf-8"?>
<!-- Generator: Adobe Illustrator 23.0.2, SVG Export Plug-In . SVG Version: 6.00 Build 0)  -->
<svg version="1.1" id="Layer_1" xmlns="http://www.w3.org/2000/svg" xmlns:xlink="http://www.w3.org/1999/xlink" x="0px" y="0px"
	 viewBox="0 0 96 96" style="enable-background:new 0 0 96 96;" xml:space="preserve">
<style type="text/css">
	.st0{fill:#FFFFFF;}
	.st1{fill:#F4F4F4;}
</style>
<path class="st0" d="M40.1,11c-1.8,0-3.2,1.5-3.2,3.2v3.2c0,1.8,1.5,3.2,3.2,3.2c1.8,0,3.2-1.5,3.2-3.2v-3.2
	C43.4,12.5,41.9,11,40.1,11z M53.1,14.2c-1.8,0-3.2,1.5-3.2,3.2c0,1.8,1.5,3.2,3.2,3.2c1.8,0,3.2-1.5,3.2-3.2
	C56.3,15.7,54.9,14.2,53.1,14.2z"/>
<path class="st0" d="M75.8,75.8c0,1.8-1.5,3.2-3.2,3.2H23.9c-1.8,0-3.2-1.5-3.2-3.2c0-1.8,1.5-3.2,3.2-3.2h48.6
	C74.3,72.5,75.8,74,75.8,75.8z"/>
<path class="st1" d="M75.8,27.2H27.2c-1.8,0-3.2,1.5-3.2,3.2v22.7c0,7.2,5.8,13,13,13h19.4c7.2,0,13-5.8,13-13v-3.2h6.5
	c3.6,0,6.5-2.9,6.5-6.5v-9.7C82.2,30.1,79.3,27.2,75.8,27.2z M75.8,43.4h-6.5v-9.7h6.5V43.4z"/>
</svg>
