<?xml version="1.0" encoding="utf-8"?>
<!-- Generator: Adobe Illustrator 23.0.2, SVG Export Plug-In . SVG Version: 6.00 Build 0)  -->
<svg version="1.1" id="Layer_1" xmlns="http://www.w3.org/2000/svg" xmlns:xlink="http://www.w3.org/1999/xlink" x="0px" y="0px"
	 viewBox="0 0 200 200" style="enable-background:new 0 0 200 200;" xml:space="preserve">
<style type="text/css">
	.st0{fill:#F2F2F2;}
	.st1{fill:#B3B3B3;}
</style>
<path class="st0" d="M80,120.6c-0.1-0.3-0.1-0.5-0.2-0.8c0-0.3-0.1-0.6-0.1-0.8c0-0.3-0.1-0.6-0.1-0.9c0-0.3,0-0.6,0-0.9
	c0-1.3,0.1-2.6,0.3-4.1c0.1-0.4,0.1-0.7,0.2-1.1c0.1-0.4,0.2-0.7,0.3-1.1l0.1-0.3l0-0.1l0,0l0-0.1l0,0l0-0.1
	c0.1-0.2,0.1-0.3,0.2-0.5c0.1-0.3,0.2-0.7,0.4-1.1c0.2-0.4,0.3-0.8,0.5-1.2c0.2-0.4,0.4-0.7,0.5-1.1c0.4-0.7,0.8-1.4,1.2-2.1
	c0.8-1.4,1.8-2.6,2.7-3.9c0.9-1.2,1.8-2.4,2.5-3.6c0.8-1.2,1.5-2.3,2-3.5c0.2-0.3,0.3-0.6,0.4-0.9c0.1-0.1,0.1-0.3,0.2-0.4l0-0.1
	l0,0c0,0,0,0.1,0,0l0,0l0-0.1l0.1-0.2c0.1-0.3,0.2-0.7,0.3-1c0.1-0.3,0.2-0.6,0.2-0.8c0.3-1.1,0.5-2.2,0.6-3.2
	c0.1-1,0.1-1.9,0.1-2.8c-0.1-0.8-0.2-1.5-0.3-2.1c-0.1-0.3-0.1-0.5-0.2-0.7c-8.2-1-16.7,5.5-20,15.6c-3.5,10.7,0.3,21.7,8.5,25.1
	C80.2,121.4,80.1,121,80,120.6 M95.4,82.1c0.1,0.4,0.3,0.8,0.4,1.3c0.1,0.3,0.1,0.5,0.2,0.8c0,0.3,0.1,0.5,0.1,0.8
	c0,0.3,0.1,0.6,0.1,0.9c0,0.3,0,0.6,0,0.9c0,1.3-0.1,2.6-0.3,4.1c-0.1,0.4-0.1,0.7-0.2,1.1c-0.1,0.3-0.2,0.7-0.3,1l-0.1,0.3l0,0.1
	l0,0l0,0.1l-0.1,0.2c-0.1,0.2-0.1,0.4-0.2,0.6c-0.1,0.4-0.2,0.7-0.4,1.1c-0.2,0.4-0.3,0.7-0.5,1.1c-0.2,0.4-0.4,0.7-0.5,1.1
	c-0.4,0.7-0.8,1.4-1.2,2.1c-0.8,1.4-1.8,2.6-2.7,3.9c-0.9,1.2-1.8,2.4-2.5,3.6c-0.2,0.3-0.4,0.6-0.6,0.9c-0.2,0.3-0.4,0.6-0.5,0.9
	c-0.2,0.3-0.3,0.6-0.5,0.9c-0.1,0.3-0.3,0.5-0.4,0.8c-0.1,0.2-0.3,0.6-0.4,0.9c-0.1,0.2-0.1,0.3-0.2,0.5l-0.1,0.1l0,0c0,0,0,0,0,0
	l0,0l-0.1,0.2c-0.1,0.3-0.2,0.6-0.3,0.9c-0.1,0.3-0.2,0.6-0.3,0.9c-0.3,1.1-0.5,2.2-0.6,3.3c-0.1,1-0.1,1.9-0.1,2.8
	c0.1,0.8,0.2,1.5,0.3,2.1c0.1,0.3,0.1,0.5,0.2,0.7c8.2,1,16.7-5.5,20-15.6C107.4,96.4,103.6,85.4,95.4,82.1z M104.5,160.7l5.9,1.2
	l0,0l0,0l0,0l0,0l0.1-0.1c0.1-0.1,0.1-0.2,0.2-0.3c0.2-0.2,0.3-0.4,0.5-0.6c0.2-0.2,0.4-0.4,0.6-0.6c0.2-0.2,0.4-0.4,0.6-0.6
	c0.4-0.4,0.8-0.7,1.3-1c0.9-0.7,1.8-1.2,2.6-1.8c0.9-0.6,1.7-1.1,2.5-1.6c0.8-0.6,1.5-1.1,2.1-1.7c0.2-0.1,0.3-0.3,0.4-0.5
	c0.1-0.1,0.1-0.2,0.2-0.2l0.1-0.1l0,0c0,0,0,0.1,0,0l0,0l0,0l0.1-0.1c0.1-0.2,0.3-0.4,0.4-0.5c0.1-0.2,0.2-0.3,0.4-0.5
	c0.5-0.6,0.9-1.3,1.2-1.9c0.3-0.6,0.6-1.2,0.7-1.7c0.2-0.5,0.3-1,0.3-1.4c0-0.2,0-0.4,0-0.5c-4.9-2.6-11.9-0.7-16.5,4.9
	C105.9,154.1,104.6,157.5,104.5,160.7z M135.2,135.2c1.8-4.3,3.6-8.7,5.5-13c6-14.1,12.1-28.2,18.3-42.3l-54.6-11.3l-1.4,4.4
	c-0.7,2.3,0.1,4.7,2,6.1c0.9,0.7,1.8,1.5,2.7,2.3c1.7,1.7,4.2,2.1,6.3,1l5.2-2.7c2.7-1.4,6-0.3,7.3,2.4c1.4,2.7,0.3,6-2.4,7.3
	l-5.2,2.7c-2.1,1.1-3.2,3.4-2.9,5.7c0.2,1.2,0.3,2.4,0.3,3.5c0,2.4,1.5,4.5,3.8,5.2l5.6,1.8c2.9,0.9,4.4,4,3.5,6.9
	c-0.9,2.9-4,4.4-6.9,3.5l-5.6-1.8c-2.3-0.7-4.7,0.1-6.1,2c-0.7,0.9-1.5,1.8-2.3,2.7c-1.7,1.7-2.1,4.2-1,6.3l2.7,5.2
	c1.4,2.7,0.3,6-2.4,7.3c-2.7,1.4-6,0.3-7.3-2.4l-2.7-5.2c-1.1-2.1-3.4-3.2-5.7-2.9c-1.2,0.2-2.4,0.3-3.5,0.3c-2.4,0-4.5,1.5-5.2,3.8
	l-1.8,5.6c-0.9,2.9-4,4.4-6.9,3.5l0,0c-2.9-0.9-4.4-4-3.5-6.9l1.8-5.6c0.7-2.3-0.1-4.7-2-6.1c-0.9-0.7-1.8-1.5-2.7-2.3
	c-1.7-1.7-4.2-2.1-6.3-1l-5.2,2.7c-2.7,1.4-6,0.3-7.3-2.4h0c-1.4-2.7-0.3-6,2.4-7.3l5.2-2.7c2.1-1.1,3.2-3.4,2.9-5.7
	c-0.2-1.2-0.3-2.4-0.3-3.5c0-2.4-1.5-4.5-3.8-5.2L50,95.4c-2.9-0.9-4.4-4-3.5-6.9c0.9-2.9,4-4.4,6.9-3.5l5.6,1.8
	c2.3,0.7,4.7-0.1,6.1-2c0.7-0.9,1.5-1.8,2.3-2.7c1.7-1.7,2.1-4.2,1-6.3l-2.7-5.2c-1.4-2.7-0.3-6,2.4-7.3c2.7-1.4,6-0.3,7.3,2.4
	l2.7,5.2c1.1,2.1,3.4,3.2,5.7,2.9c1.2-0.2,2.4-0.3,3.5-0.3c2.4,0,4.5-1.5,5.2-3.8l1.1-3.3l-58.1-12c0.1,15.4,0.1,30.7,0,46.1
	c-0.1,15.3-0.3,30.6-0.6,45.9c14.7,3,29.3,6.1,44,9.1l10.6,2.2c0.4-0.3,0.9-0.4,1.5-0.5l3.9-0.4c1.6-0.2,2.9-1.3,3.2-2.9
	c0.2-0.8,0.4-1.6,0.7-2.3c0.6-1.5,0.2-3.2-1.1-4.2l-3.1-2.5c-1.6-1.3-1.8-3.6-0.5-5.2c1.3-1.6,3.6-1.8,5.2-0.5l3.1,2.5
	c1.2,1,3,1.1,4.3,0.2c0.7-0.4,1.4-0.8,2.1-1.1c1.5-0.7,2.4-2.1,2.2-3.7l-0.4-3.9c-0.2-2,1.3-3.8,3.3-4c2-0.2,3.8,1.3,4,3.3l0.4,3.9
	c0.2,1.6,1.3,2.9,2.9,3.2c0.8,0.2,1.6,0.4,2.3,0.7c1.5,0.6,3.2,0.2,4.2-1.1l2.5-3.1C131.8,134.7,133.7,134.3,135.2,135.2z
	 M123.1,164.6c1.9-4.7,3.8-9.4,5.8-14c-0.5-1.1-1.2-2-2-2.9c0,0.3,0,0.6-0.1,0.9c0,0.2-0.1,0.4-0.1,0.5c0,0.2-0.1,0.4-0.1,0.6
	c0,0.2-0.1,0.4-0.2,0.6c-0.1,0.2-0.1,0.4-0.2,0.6c-0.3,0.8-0.7,1.6-1.2,2.5c-0.1,0.2-0.3,0.4-0.4,0.6c-0.1,0.2-0.3,0.4-0.4,0.6
	l-0.1,0.1l0,0l0,0l0,0l-0.1,0.1c-0.1,0.1-0.2,0.2-0.2,0.3c-0.2,0.2-0.3,0.4-0.5,0.6c-0.2,0.2-0.4,0.4-0.6,0.6
	c-0.2,0.2-0.4,0.4-0.6,0.6c-0.4,0.4-0.8,0.7-1.3,1c-0.9,0.6-1.8,1.2-2.6,1.8c-0.9,0.6-1.7,1.1-2.5,1.6c-0.2,0.1-0.4,0.3-0.6,0.4
	c-0.2,0.1-0.4,0.3-0.5,0.4c-0.2,0.1-0.3,0.3-0.5,0.4l0,0L123.1,164.6z"/>
<path class="st1" d="M167.6,73.1L30.5,44.8c-3.8-0.8-5.7-5-3.8-8.4L38,16.9l19.3,4L63.8,10l87,18l1.7,12.6l19.3,4l2.6,22.4
	C174.8,70.7,171.3,73.8,167.6,73.1"/>
<path class="st1" d="M118.4,176.2c-13.9-2.9-27.9-5.8-41.8-8.6c-13.9-2.9-27.9-5.8-41.8-8.6c-0.1,4.7-0.3,9.5-0.4,14.2
	c13.1,2.7,26.2,5.4,39.3,8.1c13.1,2.7,26.2,5.4,39.3,8.1C114.8,185,116.6,180.6,118.4,176.2"/>
</svg>
