<?xml version="1.0" encoding="utf-8"?>
<!-- Generator: Adobe Illustrator 23.0.2, SVG Export Plug-In . SVG Version: 6.00 Build 0)  -->
<svg version="1.1" id="Layer_1" xmlns="http://www.w3.org/2000/svg" xmlns:xlink="http://www.w3.org/1999/xlink" x="0px" y="0px"
	 viewBox="0 0 96 96" style="enable-background:new 0 0 96 96;" xml:space="preserve">
<style type="text/css">
	.st0{fill:#FFFFFF;}
	.st1{fill:#F4F4F4;}
</style>
<path class="st0" d="M-54.6,11c-1.8,0-3.2,1.5-3.2,3.2v3.2c0,1.8,1.5,3.2,3.2,3.2c1.8,0,3.2-1.5,3.2-3.2v-3.2
	C-51.4,12.5-52.8,11-54.6,11z M-41.7,14.2c-1.8,0-3.2,1.5-3.2,3.2c0,1.8,1.5,3.2,3.2,3.2c1.8,0,3.2-1.5,3.2-3.2
	C-38.4,15.7-39.9,14.2-41.7,14.2z"/>
<path class="st0" d="M-19,75.8c0,1.8-1.5,3.2-3.2,3.2h-48.6c-1.8,0-3.2-1.5-3.2-3.2c0-1.8,1.5-3.2,3.2-3.2h48.6
	C-20.4,72.5-19,74-19,75.8z"/>
<path class="st1" d="M-19,27.2h-48.6c-1.8,0-3.2,1.5-3.2,3.2v22.7c0,7.2,5.8,13,13,13h19.4c7.2,0,13-5.8,13-13v-3.2h6.5
	c3.6,0,6.5-2.9,6.5-6.5v-9.7C-12.5,30.1-15.4,27.2-19,27.2z M-19,43.4h-6.5v-9.7h6.5V43.4z"/>
<g id="surface1">
	<path class="st1" d="M29.5,20.2c-5.1,0-9.3,4.1-9.3,9.3v6.2c0,1.7,1.4,3.1,3.1,3.1h9.3v3.1c0,1.7,1.4,3.1,3.1,3.1
		c1.7,0,3.1-1.4,3.1-3.1v-3.1h12.4v30.9H37.5c2.6,0,4.8-1.5,5.7-3.7c0.5-1.2,1.7-3.9,1.7-8.6c0-1.7-1.4-3.1-3.1-3.1H29.5
		c-1.7,0-3.1,1.4-3.1,3.1c0,3.9,1,6.5,1.7,8.5c0.9,2.3,3.1,3.8,5.7,3.8H23.3c-1.7,0-3.1,1.4-3.1,3.1c0,1.7,1.4,3.1,3.1,3.1h46.3
		c3.4,0,6.2-2.8,6.2-6.2v-34c0-8.5-6.9-15.4-15.4-15.4H29.5z M63.4,55.7c2.6,0,4.6,2.1,4.6,4.6c0,2.6-2.1,4.6-4.6,4.6
		c-2.6,0-4.6-2.1-4.6-4.6C58.8,57.8,60.9,55.7,63.4,55.7z"/>
</g>
</svg>
