<?xml version="1.0" standalone="no"?>
<!DOCTYPE svg PUBLIC "-//W3C//DTD SVG 20010904//EN"
 "http://www.w3.org/TR/2001/REC-SVG-20010904/DTD/svg10.dtd">
<svg version="1.0" xmlns="http://www.w3.org/2000/svg"
 width="600.000000pt" height="600.000000pt" viewBox="0 0 600.000000 600.000000"
 preserveAspectRatio="xMidYMid meet">
<metadata>
Created by potrace 1.11, written by Peter Selinger 2001-2013
</metadata>
<g transform="translate(0.000000,600.000000) scale(0.100000,-0.100000)"
fill="#000000" stroke="none">
<path d="M3840 4150 c-26 -26 -26 -81 -2 -103 44 -40 122 -7 122 51 0 60 -78
94 -120 52z"/>
<path d="M1460 4030 l0 -60 -40 0 -40 0 0 -50 0 -50 39 0 39 0 3 -124 c4 -107
7 -127 24 -146 32 -35 70 -50 129 -50 80 0 86 4 86 62 l0 50 -30 -7 c-21 -5
-39 -2 -55 9 -24 16 -25 22 -25 111 l0 95 55 0 55 0 0 50 0 50 -55 0 -55 0 0
60 0 60 -65 0 -65 0 0 -60z"/>
<path d="M3520 4030 l0 -60 -40 0 -40 0 0 -50 0 -50 40 0 40 0 0 -111 c0 -167
31 -209 153 -209 81 0 87 4 87 62 l0 50 -30 -7 c-21 -5 -39 -2 -55 9 -24 16
-25 22 -25 111 l0 95 55 0 55 0 0 50 0 50 -55 0 -55 0 0 60 0 60 -65 0 -65 0
0 -60z"/>
<path d="M595 3971 c-37 -9 -91 -37 -101 -52 -3 -6 7 -24 23 -41 l30 -30 34
21 c60 37 139 21 152 -29 4 -17 0 -20 -32 -20 -60 0 -154 -20 -187 -41 -37
-22 -54 -57 -54 -108 0 -114 166 -164 258 -79 l22 21 0 -26 c0 -26 2 -27 55
-27 l55 0 0 139 c0 149 -9 191 -48 234 -40 42 -124 58 -207 38z m141 -245 c11
-29 -20 -70 -63 -85 -37 -13 -44 -13 -67 2 -30 20 -33 47 -8 69 32 29 129 38
138 14z"/>
<path d="M1911 3971 c-158 -40 -214 -244 -97 -356 68 -66 178 -84 266 -44 86
39 123 98 124 196 0 117 -81 199 -205 208 -30 2 -69 0 -88 -4z m118 -116 c36
-18 55 -64 48 -112 -9 -50 -36 -74 -90 -80 -41 -5 -49 -2 -77 25 -24 25 -30
39 -30 74 0 87 73 133 149 93z"/>
<path d="M2465 3964 c-16 -8 -38 -23 -47 -31 -17 -15 -18 -14 -18 10 0 26 -2
27 -60 27 l-60 0 0 -205 0 -205 65 0 65 0 0 130 c0 126 1 132 25 155 29 30 65
32 88 7 14 -15 17 -42 17 -155 l0 -137 65 0 65 0 0 130 c0 126 1 132 25 155
29 30 65 32 88 7 14 -15 17 -42 17 -155 l0 -137 65 0 65 0 0 136 c0 160 -11
215 -52 249 -55 47 -147 45 -195 -4 l-28 -28 -27 27 c-41 41 -111 51 -163 24z"/>
<path d="M3120 3965 c-25 -8 -55 -23 -68 -33 l-23 -18 35 -33 35 -34 27 22
c38 30 103 29 132 -2 12 -13 22 -28 22 -34 0 -5 -34 -13 -76 -16 -89 -8 -155
-34 -180 -72 -22 -34 -22 -106 0 -140 43 -66 176 -75 236 -15 l20 20 0 -25 c0
-24 3 -25 61 -25 l62 0 -5 149 c-5 168 -19 211 -77 245 -43 25 -143 30 -201
11z m160 -253 c0 -51 -70 -93 -123 -73 -27 11 -39 33 -30 57 9 23 60 43 111
44 40 0 42 -2 42 -28z"/>
<path d="M932 3813 c4 -165 12 -196 57 -237 22 -20 95 -32 135 -22 13 3 38 18
55 32 l31 26 0 -26 c0 -25 2 -26 60 -26 l60 0 0 205 0 205 -64 0 -64 0 -4
-141 c-3 -126 -5 -142 -22 -155 -28 -20 -73 -17 -96 6 -18 18 -20 33 -20 155
l0 135 -66 0 -66 0 4 -157z"/>
<path d="M3830 3765 l0 -205 60 0 60 0 0 205 0 205 -60 0 -60 0 0 -205z"/>
<path d="M4531 3710 c-19 -33 -38 -60 -42 -60 -3 0 -52 9 -108 21 -57 11 -104
19 -106 17 -2 -2 -33 -54 -69 -116 -70 -119 -77 -149 -48 -176 13 -11 226 -59
668 -150 357 -74 705 -146 773 -160 150 -31 182 -32 206 -6 17 19 17 26 2 157
-9 75 -21 139 -27 143 -6 3 -53 14 -105 24 -52 10 -97 22 -100 26 -3 5 -8 36
-12 69 -3 34 -9 64 -13 66 -7 4 -969 205 -981 205 -2 0 -20 -27 -38 -60z"/>
<path d="M3534 3468 c-16 -7 -30 -39 -58 -127 -40 -130 -42 -149 -23 -175 13
-18 17 -9 103 272 14 44 12 47 -22 30z"/>
<path d="M3716 3330 c-3 -8 -44 -138 -90 -288 -82 -266 -84 -274 -70 -309 9
-19 17 -34 18 -32 2 2 43 132 91 289 85 278 87 286 72 320 -10 25 -16 31 -21
20z"/>
<path d="M4248 2794 c-1 -261 -2 -495 -3 -521 l0 -46 305 -63 c370 -77 400
-76 416 4 5 25 1 34 -21 54 -37 32 -46 59 -27 81 20 23 29 22 74 -9 34 -24 41
-25 68 -14 17 7 35 21 40 31 16 28 12 36 -6 11 -41 -58 -91 -48 -129 27 -28
56 -48 66 -112 58 -39 -6 -73 -36 -73 -66 0 -9 -9 -31 -20 -48 -15 -25 -27
-33 -48 -33 -45 0 -66 31 -58 82 4 24 10 57 13 73 4 24 -2 36 -30 63 -42 41
-62 43 -127 12 -47 -22 -54 -23 -77 -10 -58 33 -47 88 25 124 54 28 62 39 62
96 0 49 -23 75 -85 97 -76 28 -88 88 -25 120 18 9 32 8 63 -3 59 -21 80 -17
114 19 44 47 46 62 17 125 -24 51 -25 60 -12 82 10 18 23 26 51 28 34 3 39 0
66 -45 44 -70 48 -73 97 -73 35 0 51 6 70 25 39 39 28 57 -41 71 -33 7 -178
37 -322 67 l-263 54 -2 -473z"/>
<path d="M3756 3223 c-2 -10 -42 -137 -87 -283 -75 -244 -81 -268 -71 -305 12
-45 9 -53 -12 -36 -8 7 -16 8 -19 4 -2 -4 -30 -92 -62 -196 -56 -182 -58 -188
-39 -202 10 -8 21 -15 25 -15 3 0 31 87 63 193 32 105 73 239 92 297 18 58 60
192 93 299 57 184 59 196 46 228 -16 37 -21 41 -29 16z"/>
<path d="M722 3195 l-11 -24 34 16 c24 12 31 19 23 25 -22 13 -34 9 -46 -17z"/>
<path d="M754 3161 c-51 -24 -64 -36 -77 -68 -8 -21 -14 -39 -13 -41 2 -1 53
21 115 50 l112 52 -33 18 c-18 9 -35 17 -38 17 -3 0 -32 -13 -66 -28z"/>
<path d="M1847 3158 c-44 -104 -590 -1364 -594 -1370 -2 -5 35 -8 84 -8 l88 1
235 277 236 277 59 153 60 154 25 -56 25 -56 128 149 c70 82 127 153 127 158
0 5 -33 85 -74 178 l-74 170 -156 3 -156 3 -13 -33z"/>
<path d="M3792 3080 c-12 -36 -78 -249 -147 -475 -69 -225 -128 -415 -130
-421 -3 -11 264 -207 301 -221 19 -7 424 166 424 182 0 6 -93 224 -206 485
-113 261 -209 484 -213 495 -6 15 -12 5 -29 -45z"/>
<path d="M5020 3077 c-16 -47 -12 -61 23 -94 47 -44 62 -46 123 -17 60 28 86
26 111 -12 23 -35 6 -66 -57 -100 -55 -30 -65 -50 -56 -110 8 -48 19 -60 64
-75 60 -19 82 -37 82 -67 0 -56 -39 -78 -100 -57 -62 22 -82 19 -118 -18 -36
-38 -40 -69 -15 -121 16 -35 17 -35 27 -13 15 28 56 35 73 11 7 -10 13 -33 13
-51 0 -60 76 -74 125 -23 16 17 36 30 46 30 11 0 25 19 39 53 12 28 72 166
132 305 61 139 108 256 105 259 -3 3 -141 33 -306 67 l-300 62 -11 -29z"/>
<path d="M935 2925 c-298 -146 -331 -165 -341 -192 l-11 -31 121 58 c362 173
619 303 606 308 -8 2 -22 8 -30 12 -10 5 -133 -51 -345 -155z"/>
<path d="M2850 3065 c-14 -8 -107 -49 -207 -91 l-181 -77 22 -51 c12 -28 82
-192 156 -363 74 -172 137 -313 140 -313 3 0 24 62 47 138 22 75 78 255 122
399 45 143 81 266 81 271 0 13 -124 102 -142 102 -7 0 -24 -7 -38 -15z"/>
<path d="M4835 2961 c-108 -26 -176 -118 -183 -244 -5 -83 16 -145 61 -183
l32 -27 6 69 c6 75 11 87 75 181 49 71 67 122 62 172 -3 38 -10 42 -53 32z"/>
<path d="M4933 2892 c-1 -65 -19 -106 -82 -196 -21 -30 -44 -75 -50 -99 -16
-55 -11 -102 9 -102 123 4 222 120 223 261 0 33 -5 76 -13 95 -12 32 -67 99
-80 99 -3 0 -6 -26 -7 -58z"/>
<path d="M1225 2811 c-199 -97 -218 -108 -198 -119 12 -7 28 -12 35 -12 17 0
438 203 438 212 0 3 -13 10 -28 16 -24 8 -53 -3 -247 -97z"/>
<path d="M3283 2716 c-59 -191 -62 -216 -28 -216 6 0 38 85 70 189 49 159 56
193 45 205 -7 9 -16 16 -19 16 -4 0 -34 -88 -68 -194z"/>
<path d="M1305 2771 l-219 -107 32 -13 c38 -16 53 -10 317 122 153 76 158 80
135 93 -14 7 -29 13 -35 13 -5 0 -109 -49 -230 -108z"/>
<path d="M890 2830 c-30 -16 -50 -29 -45 -29 6 0 35 13 65 29 30 16 51 29 45
29 -5 0 -35 -13 -65 -29z"/>
<path d="M1396 2732 l-219 -107 153 -68 c84 -37 154 -66 155 -64 7 10 145 334
145 340 0 12 -9 8 -234 -101z"/>
<path d="M2215 2674 c-65 -77 -124 -146 -131 -154 -10 -12 -9 -22 3 -50 l15
-35 35 40 c19 22 78 91 130 152 l95 113 -14 36 -15 36 -118 -138z"/>
<path d="M2238 2560 l-128 -149 20 -46 c21 -49 23 -48 -50 -45 l-45 1 -106
-123 c-58 -68 -109 -129 -113 -136 -6 -10 15 -13 102 -11 60 1 114 4 119 8 5
3 92 103 193 221 101 118 192 225 202 236 19 22 19 23 -17 108 -21 47 -40 86
-44 86 -3 -1 -63 -68 -133 -150z"/>
<path d="M520 2650 c-30 -16 -50 -29 -45 -29 6 0 35 13 65 29 30 16 51 29 45
29 -5 0 -35 -13 -65 -29z"/>
<path d="M645 2530 c-143 -71 -263 -130 -267 -132 -4 -2 -14 -20 -22 -40 l-16
-37 178 87 c376 185 374 184 388 220 7 17 10 32 6 31 -4 0 -124 -59 -267 -129z"/>
<path d="M3446 2459 c-53 -175 -56 -193 -42 -207 10 -10 19 -13 25 -7 5 6 34
93 66 194 53 174 55 184 38 197 -10 7 -20 14 -23 14 -3 0 -32 -86 -64 -191z"/>
<path d="M614 2436 c-271 -133 -292 -146 -303 -176 -6 -18 -11 -34 -11 -36 0
-3 254 120 563 271 53 26 97 51 97 55 0 6 -47 32 -53 29 -1 0 -133 -65 -293
-143z"/>
<path d="M2314 2340 c-104 -122 -190 -225 -192 -231 -2 -5 9 -9 25 -9 24 1 52
29 203 206 164 193 184 223 161 247 -4 4 -93 -92 -197 -213z"/>
<path d="M642 2365 c-194 -95 -355 -175 -359 -178 -13 -14 -111 -247 -105
-251 38 -23 357 -154 362 -149 4 5 48 105 99 223 51 118 96 218 100 222 3 3
114 -41 245 -98 132 -57 242 -104 246 -104 8 0 155 338 149 344 -5 4 -380 166
-382 165 -1 0 -161 -79 -355 -174z"/>
<path d="M3097 2112 c-87 -282 -88 -288 -73 -322 8 -19 15 -32 16 -29 0 3 40
136 89 294 76 244 88 292 79 316 -5 16 -13 29 -16 29 -4 0 -47 -130 -95 -288z"/>
<path d="M2429 2373 c-13 -16 -12 -17 4 -4 9 7 17 15 17 17 0 8 -8 3 -21 -13z"/>
<path d="M2384 2318 l-29 -33 33 29 c30 28 37 36 29 36 -2 0 -16 -15 -33 -32z"/>
<path d="M1803 2194 c-59 -70 -163 -190 -230 -268 l-121 -141 35 -3 c19 -2 41
-1 48 1 10 4 235 261 419 480 l48 57 -45 0 -46 0 -108 -126z"/>
<path d="M2324 2248 l-29 -33 33 29 c17 17 32 31 32 33 0 8 -8 1 -36 -29z"/>
<path d="M5118 2211 c-30 -19 -52 -44 -67 -73 -29 -61 -27 -75 12 -81 33 -5
40 0 138 83 47 39 67 79 47 92 -27 17 -84 8 -130 -21z"/>
<path d="M2264 2178 l-29 -33 33 29 c30 28 37 36 29 36 -2 0 -16 -15 -33 -32z"/>
<path d="M5276 2185 c-8 -32 -58 -88 -104 -117 -35 -22 -35 -22 -11 -28 83
-22 74 -27 108 54 17 41 31 81 31 90 0 26 -18 27 -24 1z"/>
<path d="M2568 2168 c-14 -18 -34 -42 -44 -53 -11 -11 -57 -65 -103 -120 -46
-55 -91 -108 -99 -117 -14 -17 -8 -62 8 -56 8 3 205 229 260 298 25 31 27 38
16 58 l-12 23 -26 -33z"/>
<path d="M2204 2108 l-29 -33 33 29 c30 28 37 36 29 36 -2 0 -16 -15 -33 -32z"/>
<path d="M2608 2101 c-8 -11 -35 -44 -60 -73 -25 -29 -82 -96 -126 -148 l-80
-95 109 -3 c60 -1 158 -1 218 0 l108 3 -71 162 c-39 89 -74 165 -77 168 -4 3
-13 -3 -21 -14z"/>
<path d="M4240 2000 c0 -44 3 -80 6 -80 3 0 202 -41 441 -90 240 -50 437 -89
439 -87 2 2 17 35 33 74 l29 71 -71 16 c-174 38 -851 176 -863 176 -11 0 -14
-19 -14 -80z"/>
<path d="M2144 2038 l-29 -33 33 29 c30 28 37 36 29 36 -2 0 -16 -15 -33 -32z"/>
<path d="M1683 1910 c-57 -66 -103 -122 -103 -125 0 -3 25 -5 56 -3 l56 3 30
75 c17 41 38 96 49 123 10 26 18 47 16 47 -1 0 -48 -54 -104 -120z"/>
<path d="M3290 1959 c0 -5 -51 -174 -74 -246 -7 -21 -5 -21 24 -10 27 10 34
21 55 92 14 45 25 90 25 101 -1 17 -29 78 -30 63z"/>
<path d="M3317 1799 c-10 -34 -16 -63 -14 -66 10 -10 58 22 63 43 4 17 -18 84
-29 84 -1 0 -10 -28 -20 -61z"/>
</g>
</svg>
