<?xml version="1.0" encoding="utf-8"?>
<!-- Generator: Adobe Illustrator 23.0.2, SVG Export Plug-In . SVG Version: 6.00 Build 0)  -->
<svg version="1.1" id="Layer_1" xmlns="http://www.w3.org/2000/svg" xmlns:xlink="http://www.w3.org/1999/xlink" x="0px" y="0px"
	 viewBox="0 0 96 96" style="enable-background:new 0 0 96 96;" xml:space="preserve">
<style type="text/css">
	.st0{fill:#FFFFFF;}
	.st1{fill:#F4F4F4;}
	.st2{fill:#C69C6D;}
	.st3{fill:#A67C52;}
	.st4{fill:#CCCCCC;}
</style>
<path class="st0" d="M-137.8-47.4c-1.8,0-3.2,1.5-3.2,3.2v3.2c0,1.8,1.5,3.2,3.2,3.2c1.8,0,3.2-1.5,3.2-3.2v-3.2
	C-134.5-45.9-136-47.4-137.8-47.4z M-124.8-44.2c-1.8,0-3.2,1.5-3.2,3.2c0,1.8,1.5,3.2,3.2,3.2c1.8,0,3.2-1.5,3.2-3.2
	S-123-44.2-124.8-44.2z"/>
<path class="st0" d="M-102.1,17.4c0,1.8-1.5,3.2-3.2,3.2H-154c-1.8,0-3.2-1.5-3.2-3.2c0-1.8,1.5-3.2,3.2-3.2h48.6
	C-103.6,14.1-102.1,15.6-102.1,17.4z"/>
<path class="st1" d="M-102.1-31.2h-48.6c-1.8,0-3.2,1.5-3.2,3.2v22.7c0,7.2,5.8,13,13,13h19.4c7.2,0,13-5.8,13-13v-3.2h6.5
	c3.6,0,6.5-2.9,6.5-6.5v-9.7C-95.7-28.3-98.6-31.2-102.1-31.2z M-102.1-15h-6.5v-9.7h6.5V-15z"/>
<path class="st2" d="M-27.8,52.3l-1.7,22.9h-26.1l-1.7-22.9H-27.8z"/>
<path class="st3" d="M-35.3,52.3L-37,75.2h7.4l1.7-22.9H-35.3z"/>
<path class="st4" d="M-34.6,11.5c-0.1-0.5-0.3-0.9-0.6-1.1c-0.3-0.3-0.8-0.4-1.3-0.3c-0.5,0.1-0.9,0.3-1.1,0.6
	c-3.2,4-3.7,9.6-1.3,14.1l0.5,1c0.3,0.6,0.9,0.9,1.5,0.9c0.3,0,0.6-0.1,0.8-0.2c0.4-0.2,0.7-0.6,0.9-1c0.1-0.5,0.1-0.9-0.1-1.3
	l-0.5-1c-1.8-3.3-1.4-7.3,0.9-10.3C-34.7,12.4-34.5,12-34.6,11.5z"/>
<path class="st4" d="M-42.6,26.5c0.3,0,0.6-0.1,0.8-0.2c0.4-0.2,0.7-0.6,0.9-1c0.1-0.5,0.1-0.9-0.1-1.3l-0.5-1
	c-0.8-1.4-1.1-3.1-1.1-4.7c0.1-1-0.7-1.7-1.7-1.8c-0.9,0-1.7,0.7-1.7,1.7c-0.1,2.2,0.5,4.5,1.5,6.5l0.5,1
	C-43.8,26.2-43.2,26.5-42.6,26.5z"/>
<path class="st4" d="M-48.9,26.4c0.1,0.1,0.2,0.1,0.3,0.1c0.1,0,0.2,0.1,0.3,0.1c0.1,0,0.2,0,0.3-0.1c0.1,0,0.2-0.1,0.3-0.1
	c0.1-0.1,0.2-0.1,0.3-0.2c0.1-0.1,0.2-0.1,0.3-0.2c0.3-0.3,0.5-0.7,0.5-1.2c0-0.1,0-0.2-0.1-0.3c0-0.1-0.1-0.2-0.1-0.3
	c-0.1-0.1-0.1-0.2-0.2-0.3c-0.1-0.1-0.1-0.2-0.2-0.3c-0.1-0.1-0.2-0.2-0.2-0.2c-0.1-0.1-0.2-0.1-0.3-0.2c-0.1-0.1-0.2-0.1-0.3-0.1
	c-0.2-0.1-0.5-0.1-0.6,0c-0.1,0-0.2,0.1-0.3,0.1c-0.1,0.1-0.2,0.1-0.3,0.2c-0.1,0.1-0.2,0.1-0.3,0.2c-0.1,0.1-0.2,0.2-0.2,0.2
	c-0.1,0.1-0.1,0.2-0.2,0.3c-0.1,0.1-0.1,0.2-0.1,0.3c0,0.1-0.1,0.2-0.1,0.3c0,0.5,0.2,0.9,0.5,1.2c0.1,0.1,0.2,0.2,0.3,0.2
	C-49.2,26.3-49.1,26.4-48.9,26.4z"/>
<path class="st1" d="M-58,30.6v4h-0.6c-1,0-1.7,0.7-1.7,1.7V42c0,1,0.7,1.7,1.7,1.7h0.7l0.5,6.9c-0.5,0-0.9,0.2-1.3,0.6
	c-0.3,0.3-0.5,0.8-0.5,1.3l1.8,22.9c0.1,0.9,0.8,1.6,1.7,1.6h0.7l0.3,4.1c0.1,0.9,0.8,1.6,1.7,1.6h32c1,0,1.7-0.7,1.7-1.7
	c0-1-0.7-1.7-1.7-1.7h-9.6l0.2-2.3h0.7c0.9,0,1.7-0.7,1.7-1.6l1.8-22.9c0.1-0.5-0.1-1-0.5-1.3c-0.3-0.3-0.8-0.6-1.3-0.6l0.5-6.9h0.7
	c1,0,1.7-0.7,1.7-1.7v-5.7c0-1-0.7-1.7-1.7-1.7h-0.6v-4c0-1-0.7-1.7-1.7-1.7h-27.5C-57.3,28.8-58,29.6-58,30.6z M-33.7,76.9
	l-0.2,2.3h-17.4l-0.2-2.3H-33.7z M-54.5,43.7h23.7l-0.5,6.9H-54L-54.5,43.7z M-29.7,54l-1.5,19.4H-54L-55.5,54H-29.7z M-56.9,40.3
	V38h28.6v2.3H-56.9z M-54.6,34.6v-2.3h24v2.3H-54.6z"/>
<path class="st2" d="M54.7,23.8H29c-3.1,0-5.6,2.5-5.6,5.6c0,3.1,2.5,5.6,5.6,5.6h21.3c2.5,0,4.5,2,4.5,4.5v29.2
	c0,2.5-2,4.5-4.5,4.5H25.6c-1.2,0-2.2,1-2.2,2.2s1,2.2,2.2,2.2h47.1c1.2,0,2.2-1,2.2-2.2V33.6c0-5.4-4.4-9.8-9.8-9.8H54.7"/>
<path class="st2" d="M32.3,73.1c-2.5,0-4.5-2-4.5-4.5V55.2h18v13.5c0,2.5-2,4.5-4.5,4.5L32.3,73.1L32.3,73.1"/>
<path class="st3" d="M45.8,55.2h-4.9v13.5c0,2.5-2,4.5-4.5,4.5h4.9c2.5,0,4.5-2,4.5-4.5V55.2"/>
<path class="st3" d="M64.6,64.1c-1.9,0-3.5-1.5-3.5-3.5V38.2c0-1.9,1.5-3.5,3.5-3.5c1.9,0,3.5,1.5,3.5,3.5v22.5
	C68,62.6,66.5,64.1,64.6,64.1z"/>
<path class="st1" d="M25.6,78.1c-1.5,0-2.7-1.2-2.7-2.7c0-1.5,1.2-2.7,2.7-2.7H29L28,71.1c-0.5-0.7-0.7-1.6-0.7-2.5v-1.7h-1.7
	c-2.7,0-5-2.2-5-5s2.2-5,5-5h1.7v-1.7c0-0.3,0.2-0.5,0.5-0.5h18c0.3,0,0.5,0.2,0.5,0.5v13.4c0,0.8-0.2,1.7-0.7,2.5l-0.8,1.5h5.5
	c2.3,0,4-1.8,4-4V39.5c0-2.2-1.8-4-4-4h-5.2v4c0,0.3-0.2,0.5-0.5,0.5h-1.7v6.2c0,0.3-0.2,0.5-0.5,0.5H31.2c-0.3,0-0.5-0.2-0.5-0.5
	v-2.9h-9.6c-0.3,0-0.5-0.2-0.5-0.5s0.2-0.5,0.5-0.5h9.6V40H29c-0.3,0-0.5-0.2-0.5-0.5v-4l-0.8-0.2c-2.8-0.6-4.8-3.1-4.8-5.9
	c0-3.4,2.7-6.1,6.1-6.1h36.2c2.7,0,5.3,1.1,7.3,3c1.9,1.9,3,4.5,3,7.2v41.8c0,1.5-1.2,2.7-2.7,2.7H25.6z M25.6,73.7
	c-0.9,0-1.7,0.8-1.7,1.7s0.8,1.7,1.7,1.7h47.1c1,0,1.7-0.8,1.7-1.7v-1h0V33.6c0-5.1-4.2-9.3-9.3-9.3H29c-2.8,0-5.1,2.3-5.1,5.2
	c0,2.8,2.3,5.2,5.1,5.2h21.3c2.7,0,5,2.2,5,5v29.2c0,2.7-2.2,5-5,5H25.6z M28.3,68.6c0,2.2,1.8,4,4,4h9c2.3,0,4-1.8,4-4v-13h-17
	V68.6z M25.6,57.9c-2.2,0-4,1.8-4,4c0,2.2,1.8,4,4,4h1.7v-8H25.6z M31.7,45.7H42V40H31.7V45.7z M29.4,39h14.7v-3.5H29.4V39z"/>
</svg>
