<?xml version="1.0" encoding="utf-8"?>
<!-- Generator: Adobe Illustrator 23.0.2, SVG Export Plug-In . SVG Version: 6.00 Build 0)  -->
<svg version="1.1" id="Layer_1" xmlns="http://www.w3.org/2000/svg" xmlns:xlink="http://www.w3.org/1999/xlink" x="0px" y="0px"
	 viewBox="0 0 96 96" style="enable-background:new 0 0 96 96;" xml:space="preserve">
<style type="text/css">
	.st0{fill:#FFFFFF;}
	.st1{fill:#F4F4F4;}
	.st2{fill:#C69C6D;}
	.st3{fill:#A67C52;}
	.st4{fill:#CCCCCC;}
</style>
<path class="st0" d="M-137.8-47.4c-1.8,0-3.2,1.5-3.2,3.2v3.2c0,1.8,1.5,3.2,3.2,3.2c1.8,0,3.2-1.5,3.2-3.2v-3.2
	C-134.5-45.9-136-47.4-137.8-47.4z M-124.8-44.2c-1.8,0-3.2,1.5-3.2,3.2c0,1.8,1.5,3.2,3.2,3.2c1.8,0,3.2-1.5,3.2-3.2
	S-123-44.2-124.8-44.2z"/>
<path class="st0" d="M-102.1,17.4c0,1.8-1.5,3.2-3.2,3.2H-154c-1.8,0-3.2-1.5-3.2-3.2c0-1.8,1.5-3.2,3.2-3.2h48.6
	C-103.6,14.1-102.1,15.6-102.1,17.4z"/>
<path class="st1" d="M-102.1-31.2h-48.6c-1.8,0-3.2,1.5-3.2,3.2v22.7c0,7.2,5.8,13,13,13h19.4c7.2,0,13-5.8,13-13v-3.2h6.5
	c3.6,0,6.5-2.9,6.5-6.5v-9.7C-95.7-28.3-98.6-31.2-102.1-31.2z M-102.1-15h-6.5v-9.7h6.5V-15z"/>
<path class="st2" d="M62.1,52.3l-1.7,22.9H34.3l-1.7-22.9H62.1z"/>
<path class="st3" d="M54.7,52.3l-1.7,22.9h7.4l1.7-22.9H54.7z"/>
<path class="st4" d="M55.3,11.5c-0.1-0.5-0.3-0.9-0.6-1.1c-0.3-0.3-0.8-0.4-1.3-0.3c-0.5,0.1-0.9,0.3-1.1,0.6
	c-3.2,4-3.7,9.6-1.3,14.1l0.5,1c0.3,0.6,0.9,0.9,1.5,0.9c0.3,0,0.6-0.1,0.8-0.2c0.4-0.2,0.7-0.6,0.9-1c0.1-0.5,0.1-0.9-0.1-1.3
	l-0.5-1c-1.8-3.3-1.4-7.3,0.9-10.3C55.2,12.4,55.4,12,55.3,11.5z"/>
<path class="st4" d="M47.3,26.5c0.3,0,0.6-0.1,0.8-0.2c0.4-0.2,0.7-0.6,0.9-1c0.1-0.5,0.1-0.9-0.1-1.3l-0.5-1
	c-0.8-1.4-1.1-3.1-1.1-4.7c0.1-1-0.7-1.7-1.7-1.8c-0.9,0-1.7,0.7-1.7,1.7c-0.1,2.2,0.5,4.5,1.5,6.5l0.5,1
	C46.1,26.2,46.7,26.5,47.3,26.5z"/>
<path class="st4" d="M41,26.4c0.1,0.1,0.2,0.1,0.3,0.1c0.1,0,0.2,0.1,0.3,0.1s0.2,0,0.3-0.1c0.1,0,0.2-0.1,0.3-0.1
	c0.1-0.1,0.2-0.1,0.3-0.2c0.1-0.1,0.2-0.1,0.3-0.2c0.3-0.3,0.5-0.7,0.5-1.2c0-0.1,0-0.2-0.1-0.3c0-0.1-0.1-0.2-0.1-0.3
	C43.1,24.1,43,24,43,23.9c-0.1-0.1-0.1-0.2-0.2-0.3c-0.1-0.1-0.2-0.2-0.2-0.2c-0.1-0.1-0.2-0.1-0.3-0.2c-0.1-0.1-0.2-0.1-0.3-0.1
	c-0.2-0.1-0.5-0.1-0.6,0c-0.1,0-0.2,0.1-0.3,0.1c-0.1,0.1-0.2,0.1-0.3,0.2c-0.1,0.1-0.2,0.1-0.3,0.2c-0.1,0.1-0.2,0.2-0.2,0.2
	C40,24,40,24.1,39.9,24.3c-0.1,0.1-0.1,0.2-0.1,0.3c0,0.1-0.1,0.2-0.1,0.3c0,0.5,0.2,0.9,0.5,1.2c0.1,0.1,0.2,0.2,0.3,0.2
	C40.8,26.3,40.9,26.4,41,26.4z"/>
<path class="st1" d="M31.9,30.6v4h-0.6c-1,0-1.7,0.7-1.7,1.7V42c0,1,0.7,1.7,1.7,1.7H32l0.5,6.9c-0.5,0-0.9,0.2-1.3,0.6
	c-0.3,0.3-0.5,0.8-0.5,1.3l1.8,22.9c0.1,0.9,0.8,1.6,1.7,1.6H35l0.3,4.1c0.1,0.9,0.8,1.6,1.7,1.6h32c1,0,1.7-0.7,1.7-1.7
	c0-1-0.7-1.7-1.7-1.7h-9.6l0.2-2.3h0.7c0.9,0,1.7-0.7,1.7-1.6l1.8-22.9c0.1-0.5-0.1-1-0.5-1.3c-0.3-0.3-0.8-0.6-1.3-0.6l0.5-6.9h0.7
	c1,0,1.7-0.7,1.7-1.7v-5.7c0-1-0.7-1.7-1.7-1.7h-0.6v-4c0-1-0.7-1.7-1.7-1.7H33.6C32.6,28.8,31.9,29.6,31.9,30.6z M56.2,76.9
	L56,79.2H38.6l-0.2-2.3H56.2z M35.4,43.7h23.7l-0.5,6.9H36L35.4,43.7z M60.3,54l-1.5,19.4H35.9L34.4,54H60.3z M33,40.3V38h28.6v2.3
	H33z M35.3,34.6v-2.3h24v2.3H35.3z"/>
<path class="st1" d="M76,79.7c-0.6-0.6-1.8-0.6-2.4,0c-0.3,0.3-0.5,0.7-0.5,1.2c0,0.5,0.2,0.9,0.5,1.2c0.3,0.3,0.7,0.5,1.2,0.5
	s0.9-0.2,1.2-0.5c0.3-0.3,0.5-0.7,0.5-1.2C76.5,80.4,76.3,80,76,79.7z"/>
</svg>
