<?xml version="1.0" encoding="utf-8"?>
<!-- Generator: Adobe Illustrator 23.0.2, SVG Export Plug-In . SVG Version: 6.00 Build 0)  -->
<svg version="1.1" id="Layer_1" xmlns="http://www.w3.org/2000/svg" xmlns:xlink="http://www.w3.org/1999/xlink" x="0px" y="0px"
	 viewBox="0 0 96 96" style="enable-background:new 0 0 96 96;" xml:space="preserve">
<style type="text/css">
	.st0{fill:#5B5B5B;}
</style>
<g>
	<path class="st0" d="M48.2,23.7c8.6,0,17.2,0,25.8,0c0.7,0,1.6-0.1,2,0.3c0.6,0.6,1.3,1.6,1.3,2.3c-0.1,0.7-1,1.7-1.7,2
		c-3.5,1.1-5.4,3.2-5.6,7c-0.2,3.7-0.1,7.5-0.1,11.2c0,3.6,0.1,7.2-0.2,10.8c-0.4,4.3-2.6,7.7-6.7,9.4c-4.6,1.9-9.2,3.7-13.8,5.4
		c-0.7,0.2-1.6,0.3-2.2,0c-4.5-1.7-9-3.4-13.4-5.3c-5.1-2.1-7.3-6.3-7.3-11.6c-0.1-6.2,0-12.5,0-18.7c0-2.8-0.8-5.2-2.9-7.1
		c-0.6-0.5-1.4-0.9-2.2-1c-1.5-0.2-2.5-1-2.5-2.4c0-1.6,1.1-2.3,2.7-2.3C30.3,23.7,39.3,23.7,48.2,23.7z M66.7,28.5
		c-12.6,0-24.8,0-36.5,0c0.4,3.1,1.1,6.2,1.2,9.3c0.2,5.8,0,11.7,0.1,17.5c0,3.1,1.4,5.6,4.4,6.8c3.6,1.4,7.3,2.9,10.9,4.3
		c0.7,0.3,1.7,0.3,2.4,0c3.6-1.3,7-2.8,10.6-4.1c3.5-1.3,4.9-4,4.9-7.5c0-4.7,0-9.4,0-14.1C64.7,36.6,64.2,32.5,66.7,28.5z"/>
	<path class="st0" d="M34.1,36.2c9.3,0,18.3,0,27.6,0c0,0.9,0,1.8,0,2.7c0,5.5,0,10.9,0,16.4c0,2.2-0.7,3.7-2.8,4.5
		c-3.4,1.3-6.8,2.6-10.2,3.9c-0.4,0.2-1,0.2-1.5,0c-3.6-1.4-7.2-2.8-10.8-4.2c-1.5-0.6-2.3-1.7-2.3-3.3C34.1,49.6,34.1,43,34.1,36.2
		z"/>
</g>
</svg>
