<?xml version="1.0" encoding="utf-8"?>
<!-- Generator: Adobe Illustrator 23.0.2, SVG Export Plug-In . SVG Version: 6.00 Build 0)  -->
<svg version="1.1" id="Layer_1" xmlns="http://www.w3.org/2000/svg" xmlns:xlink="http://www.w3.org/1999/xlink" x="0px" y="0px"
	 viewBox="0 0 96 96" style="enable-background:new 0 0 96 96;" xml:space="preserve">
<style type="text/css">
	.st0{fill:#5B5B5B;}
</style>
<g id="surface1_1_">
	<path class="st0" d="M21.4,14.7V28h-6.7l10,13.3l10-13.3H28V14.7H21.4z M44.7,14.7V28H38l10,13.3L58,28h-6.7V14.7H44.7z M68,14.7
		V28h-6.7l10,13.3l10-13.3h-6.7V14.7H68z M14.7,44.7v6.7h66.6v-6.7H14.7z M31.4,54.7V68h-6.7l10,13.3l10-13.3H38V54.7H31.4z
		 M58,54.7V68h-6.7l10,13.3l10-13.3h-6.7V54.7H58z"/>
</g>
</svg>
