<?xml version="1.0" encoding="utf-8"?>
<!-- Generator: Adobe Illustrator 23.0.2, SVG Export Plug-In . SVG Version: 6.00 Build 0)  -->
<svg version="1.1" id="Layer_1" xmlns="http://www.w3.org/2000/svg" xmlns:xlink="http://www.w3.org/1999/xlink" x="0px" y="0px"
	 viewBox="0 0 96 96" style="enable-background:new 0 0 96 96;" xml:space="preserve">
<style type="text/css">
	.st0{fill:#5B5B5B;}
</style>
<g>
	<g>
		<path class="st0" d="M82.8,64c-0.7-0.6-1.8-0.4-2.4,0.3c-0.6,0.7-0.4,1.8,0.3,2.4c1.8,1.3,2.7,3.3,2.7,5.4c0,3.7-3.1,6.8-6.8,6.8
			c-0.9,0-1.8-0.2-2.6-0.5c2.3-2.4,3.7-5.6,3.7-9.1c0-7.2-5.8-13-13-13c-7.2,0-13,5.8-13,13c0,7.2,5.8,13,13,13
			c2.3,0,4.5-0.6,6.4-1.6c1.6,1,3.5,1.6,5.6,1.6c5.6,0,10.2-4.6,10.2-10.2C87,69,85.5,65.9,82.8,64z M64.9,79
			c-5.3,0-9.6-4.3-9.6-9.6s4.3-9.6,9.6-9.6s9.6,4.3,9.6,9.6S70.2,79,64.9,79z M64.8,29.7c-1,0-1.7,0.7-1.7,1.7v19.3
			c0,1,0.7,1.7,1.7,1.7c1,0,1.7-0.7,1.7-1.7V31.4C66.5,30.4,65.8,29.7,64.8,29.7z M62.8,14.7c-2.5-2.4-5.8-3.8-9.2-3.8H22.9
			c-4.1,0-7.4,3.3-7.4,7.4V75c0,4.1,3.3,7.4,7.4,7.4h25c1,0,1.7-0.7,1.7-1.7S48.8,79,47.8,79h-25c-2.2,0-4-1.8-4-4V18.3
			c0-2.2,1.8-4,4-4h28.9v4c0,4.1,3.3,7.4,7.4,7.4h5.7c1,0,1.7-0.7,1.7-1.7C66.6,20.5,65.2,17.2,62.8,14.7z M59.2,22.3
			c-2.2,0-4-1.8-4-4v-3.8c1.9,0.3,3.7,1.2,5.1,2.7c1.4,1.4,2.3,3.2,2.7,5.1H59.2z"/>
	</g>
	<g>
		<path class="st0" d="M31.2,46.9h-1.4v3.9h-2.7V39.7h4.4c1.3,0,2.3,0.3,3.1,0.9c0.7,0.6,1.1,1.4,1.1,2.5c0,0.8-0.2,1.4-0.5,1.9
			c-0.3,0.5-0.8,0.9-1.5,1.2l2.3,4.5v0.1h-2.9L31.2,46.9z M29.7,44.8h1.7c0.5,0,0.9-0.1,1.1-0.4c0.3-0.3,0.4-0.6,0.4-1.1
			s-0.1-0.9-0.4-1.1c-0.3-0.3-0.6-0.4-1.1-0.4h-1.7V44.8z"/>
		<path class="st0" d="M42.9,47.9c0-0.4-0.1-0.7-0.4-0.9c-0.3-0.2-0.8-0.4-1.5-0.7c-0.7-0.2-1.3-0.5-1.7-0.7
			c-1.4-0.7-2.2-1.7-2.2-2.9c0-0.6,0.2-1.2,0.5-1.6s0.9-0.8,1.5-1.1c0.7-0.3,1.4-0.4,2.2-0.4c0.8,0,1.5,0.1,2.1,0.4
			c0.6,0.3,1.1,0.7,1.5,1.2s0.5,1.1,0.5,1.8H43c0-0.5-0.1-0.8-0.4-1.1c-0.3-0.2-0.7-0.4-1.1-0.4c-0.5,0-0.9,0.1-1.1,0.3
			c-0.3,0.2-0.4,0.5-0.4,0.8c0,0.3,0.2,0.5,0.5,0.8c0.3,0.2,0.8,0.5,1.6,0.7s1.4,0.5,1.9,0.8c1.2,0.7,1.8,1.6,1.8,2.9
			c0,1-0.4,1.7-1.1,2.3c-0.7,0.6-1.7,0.8-3,0.8c-0.9,0-1.7-0.2-2.4-0.5s-1.3-0.8-1.6-1.3c-0.4-0.6-0.6-1.2-0.6-1.9h2.7
			c0,0.6,0.2,1,0.5,1.3s0.8,0.4,1.5,0.4c0.4,0,0.8-0.1,1-0.3S42.9,48.2,42.9,47.9z"/>
		<path class="st0" d="M47,50.8V39.7h3.6c1,0,1.9,0.2,2.6,0.7c0.8,0.4,1.4,1.1,1.8,1.9c0.4,0.8,0.7,1.7,0.7,2.7v0.5
			c0,1-0.2,1.9-0.6,2.7c-0.4,0.8-1,1.4-1.8,1.9c-0.8,0.5-1.6,0.7-2.6,0.7H47z M49.7,41.8v7h0.9c0.8,0,1.4-0.3,1.8-0.8
			c0.4-0.5,0.6-1.4,0.6-2.4V45c0-1.1-0.2-1.9-0.6-2.4c-0.4-0.5-1-0.8-1.8-0.8H49.7z"/>
	</g>
</g>
</svg>
