<?xml version="1.0" encoding="utf-8"?>
<!-- Generator: Adobe Illustrator 23.0.2, SVG Export Plug-In . SVG Version: 6.00 Build 0)  -->
<svg version="1.1" id="Layer_1" xmlns="http://www.w3.org/2000/svg" xmlns:xlink="http://www.w3.org/1999/xlink" x="0px" y="0px"
	 viewBox="0 0 96 96" style="enable-background:new 0 0 96 96;" xml:space="preserve">
<style type="text/css">
	.st0{fill:#5B5B5B;}
</style>
<g id="surface1">
	<path class="st0" d="M-113.4-45.1c-2.9,0-5.3,2.4-5.3,5.3V-14c0,1.1,0.9,2,2,2c1.1,0,2-0.9,2-2v-25.8c0-0.7,0.6-1.3,1.3-1.3H-79
		c0.7,0,1.3,0.6,1.3,1.3v30.5h-3.9c0.3-0.6,0.5-1.3,0.5-2v-5.3c0-2.2-1.8-4-4-4h-5.1c-2.2,0-4,1.8-4,4v5.3c0,0.7,0.2,1.4,0.5,2h-5.1
		c0.3-0.6,0.5-1.3,0.5-2v-5.3c0-2.2-1.8-4-4-4h-5.3c-2.2,0-4,1.8-4,4v5.3c0,0.7,0.2,1.4,0.5,2H-124c-1.1,0-2,0.9-2,2V9.9
		c0,1.1,0.9,2,2,2h2c0.2,0,0.3,0,0.5-0.1c0.1,0,0.2,0,0.3-0.1c0.1-0.1,0.3-0.1,0.4-0.2l0,0l15.4-4.7c1.7-0.5,3.5-0.3,5.1,0.5
		l28,14.8v1.1c0,1.1,0.9,2,2,2s2-0.9,2-2V11.8c1.1,0,2-0.9,2-2V-7.4c0-1.1-0.9-2-2-2h-5.3v-30.4c0-2.9-2.4-5.3-5.3-5.3
		C-78.9-45.1-113.4-45.1-113.4-45.1z M-108.1-37.8c-1.9,0-3.3,1.5-3.3,3.3v6.6c0,1.9,1.5,3.3,3.3,3.3h6.6c1.9,0,3.3-1.5,3.3-3.3
		v-6.6c0-1.9-1.5-3.3-3.3-3.3H-108.1z M-90.2-37.8c-2.2,0-4,1.8-4,4v5.3c0,2.2,1.8,4,4,4h5.3c2.2,0,4-1.8,4-4v-5.3c0-2.2-1.8-4-4-4
		C-84.9-37.8-90.2-37.8-90.2-37.8z M-122-5.4h51.6V7.7l-31.3-10.2c-0.6-0.4-1.4-0.5-2.1-0.1l-12.8,7.1c-0.1,0-0.1,0-0.2,0
		c-0.1,0.1-0.3,0.1-0.4,0.1c-0.1,0.1-0.2,0.1-0.3,0.2c-0.1,0.1-0.3,0.2-0.3,0.3c-0.1,0.1-0.1,0.1-0.1,0.1l-4.1,2.3
		C-122,7.5-122-5.4-122-5.4z M-122,14.5c-1.1,0-2,0.9-2,2v6.6c0,1.1,0.9,2,2,2s2-0.9,2-2v-6.6C-120,15.3-120.9,14.5-122,14.5z"/>
</g>
<g id="surface1_1_">
	<path class="st0" d="M26,19.8c-0.9,0-1.7,0.4-2.2,1.2c-0.4,0.8-0.4,1.7,0,2.5c0.4,0.8,1.3,1.2,2.2,1.2v7.3h9.8v-7.3
		c0.9,0,1.7-0.4,2.2-1.2c0.4-0.8,0.4-1.7,0-2.5c-0.4-0.8-1.3-1.2-2.2-1.2H26z M52.5,29.6c-1.3,0-2.5,0.5-3.5,1.4L43.1,37v29.4
		l5.9,5.9c0.9,0.9,2.2,1.4,3.5,1.4h27.3c2.7,0,4.9-2.2,4.9-4.9V34.5c0-2.7-2.2-4.9-4.9-4.9H52.5z M57.8,34.5h19.6
		c1.4,0,2.4,1.1,2.4,2.4v29.4c0,1.4-1.1,2.4-2.4,2.4H57.8c-1.4,0-2.4-1.1-2.4-2.4c0-1.4,1.1-2.4,2.4-2.4h17.1V59H57.8
		c-1.4,0-2.4-1.1-2.4-2.4s1.1-2.4,2.4-2.4h17.1v-4.9H57.8c-1.4,0-2.4-1.1-2.4-2.4c0-1.4,1.1-2.4,2.4-2.4h17.1v-4.9H57.8
		c-1.4,0-2.4-1.1-2.4-2.4S56.4,34.5,57.8,34.5z M26,37c-2.7,0-4.9,2.2-4.9,4.9v2.4h-4.9c0-0.7-0.2-1.3-0.7-1.8
		c-0.5-0.5-1.1-0.7-1.8-0.7c-1.3,0-2.4,1.1-2.4,2.5V59c0,0.9,0.4,1.7,1.2,2.2c0.8,0.4,1.7,0.4,2.5,0c0.8-0.4,1.2-1.3,1.2-2.2h4.9
		v2.4c0,2.7,2.2,4.9,4.9,4.9h12.2V37H26z"/>
</g>
</svg>
