<?xml version="1.0" encoding="utf-8"?>
<!-- Generator: Adobe Illustrator 23.0.2, SVG Export Plug-In . SVG Version: 6.00 Build 0)  -->
<svg version="1.1" id="Layer_1" xmlns="http://www.w3.org/2000/svg" xmlns:xlink="http://www.w3.org/1999/xlink" x="0px" y="0px"
	 viewBox="0 0 96 96" style="enable-background:new 0 0 96 96;" xml:space="preserve">
<style type="text/css">
	.st0{fill:#5B5B5B;}
</style>
<g>
	<path class="st0" d="M34.8,69.6c3.6,5.3,10.9,7.5,18.6,5.7c3.6-0.8,6.8-2.3,8.9-5.7c1.4,4.1,0.4,7.5-2.8,9.8
		c-5.4,3.9-15,4.1-20.8,0.7c-4.2-2.5-4.8-6.3-4.4-10.6C34.4,69.7,34.6,69.7,34.8,69.6z"/>
	<path class="st0" d="M54.9,53.8c0-5.1,0.1-10.1,0-15.2c-0.1-2.1,0.9-2.7,2.7-2.8c2.2-0.1,1.6,1.4,1.7,2.6c0,9.6,0,19.3,0.1,28.9
		c0,0.6,0.1,1.2-0.1,1.7c-0.6,1.5-2,2.4-3.4,2.3c-1.5-0.1-0.8-1.7-0.8-2.6C54.9,63.7,54.9,58.8,54.9,53.8z"/>
	<path class="st0" d="M62.3,32.7c-9.2,1.8-18.4,1.8-27.6,0c-0.4-0.2-0.8-0.4-1.1-0.6c-0.9-1.4-0.6-2.9-0.4-4.5
		c9.1,2.8,18.3,2.5,27.5,0.9c1.2-0.2,2.7-0.4,2.4-2.2c0.1,0.1,0.2,0.1,0.3,0.1c1,2.2,1.2,4.3-0.6,6.3C62.6,32.7,62.5,32.7,62.3,32.7
		z"/>
	<path class="st0" d="M43.1,23.4c0.7-0.9,1.4-1.9,2.6-2.3c1.6-0.5,1.6-1.8,1.4-3.1c-0.2-1.8-1.6-1-2.5-1.2c-0.9-0.2-2.4,0.6-2.7-1
		c-0.3-1.7,1.3-1.6,2.4-1.9c3.2-0.9,6.3-0.8,9.5,0.1c0.9,0.2,2.1,0.3,2,1.7c-0.1,1.6-1.3,1-2.2,1.2c-1.1,0.3-2.6-0.9-3,1.2
		c-0.3,1.9,0.8,2.3,2.2,2.7c1.4,0.4,2.1,1.6,3,2.7c0,0.2,0.1,0.3,0.2,0.5c0.1,1.7-1,2.2-2.3,2.2c-2.8,0.1-5.6,0.1-8.3,0
		c-1.4,0-2.5-0.6-2.3-2.2C43,23.8,43,23.6,43.1,23.4z M48.2,21.1c-1.4,0.8-2,1.7-1.9,3c0,0.1,0.7,0.3,1,0.2
		C48.8,23.7,48,22.5,48.2,21.1z"/>
	<path class="st0" d="M35.4,65.7c1.2-0.3,1.9-1,1.4-2.3c-0.5-1.2-1.2-1.6-2.5-0.8c-0.9,0.5-1.7,0-2.2-0.8c-0.5-0.8-0.3-1.6,0.4-2
		c1.5-0.8,0.8-2.2,1.2-3.3c0.3-0.3,0.6-0.6,0.9-1c1.6-0.3,2.8,0.3,2.9,1.9c0.1,2.3,1.2,1.6,2.4,1.1c1.9-0.7,3.7,0.8,2.7,2.2
		c-0.9,1.4-3.4,1.7-2.8,4.2c-2-1.2-2.7,1.9-4.6,1.2C35.4,66,35.4,65.8,35.4,65.7z"/>
	<path class="st0" d="M33.5,48.1c-1.6-0.8-2.4-1.8-0.8-3.2c1.3-1.1,0.6-2.7,1.5-3.9c0.2-0.1,0.3-0.2,0.5-0.3c1.6-0.3,2.8,0.4,2.9,2
		c0.1,2.3,1.2,1.6,2.4,1.1c0.8-0.3,1.6-0.8,2.3,0.2c0.5,0.8,0.9,2.3,0.5,2.4c-2.1,0.6-3.2,1.6-2.9,3.9c-2-1.2-2.7,1.9-4.6,1.2
		c0-0.2,0-0.3,0-0.5c1.4-0.4,2-1.1,1.3-2.5c-0.6-1.3-1.5-1.2-2.5-0.4C34,48.1,33.8,48.1,33.5,48.1z"/>
	<path class="st0" d="M62.3,32.7c0.1-0.1,0.3-0.1,0.4,0c0.8,0.5,0.7,1.3,0.7,2.1c0,10.6,0,21.3,0,31.9c0,0.5,0.2,1.2-1.1,1.6
		C62.3,56.3,62.3,44.5,62.3,32.7z"/>
	<path class="st0" d="M34.8,40.7c-0.2,0.1-0.3,0.2-0.5,0.3c-1.4-2.9-0.3-5.9-0.6-8.8c0.4,0.2,0.8,0.4,1.1,0.6
		C34.8,35.4,34.8,38,34.8,40.7z"/>
	<path class="st0" d="M43.1,23.4c0,0.2-0.1,0.4-0.1,0.6c-3.1,0.6-6.2,1.2-9.2,2.2C36.5,24.1,39.6,23.3,43.1,23.4z"/>
	<path class="st0" d="M35.4,51c0,0.2,0,0.3,0,0.5c-1.2,1.2-0.4,2.6-0.6,3.9c-0.3,0.3-0.6,0.6-0.9,1c-0.1-2.8-0.2-5.5-0.3-8.3
		c0.2,0,0.5,0,0.7,0C34.3,49.2,33.6,50.6,35.4,51z"/>
	<path class="st0" d="M55.9,24c-0.1-0.2-0.1-0.3-0.2-0.5c2.7,0.5,5.8,0.2,7.7,2.9c-0.1,0-0.2,0-0.3-0.1C60.7,25.6,58.3,24.8,55.9,24
		z"/>
	<path class="st0" d="M35.4,65.7c0,0.2,0,0.3,0,0.5c-1.1,1-0.5,2.3-0.6,3.5c-0.2,0-0.4,0.1-0.6,0.1c-1-1.7-0.6-3.5-0.5-5.4
		C34.8,64.2,34.7,65.4,35.4,65.7z"/>
	<path class="st0" d="M35.4,51c-1.8-0.4-1.1-1.8-1.2-2.9c1-0.8,1.9-0.9,2.5,0.4C37.4,49.9,36.8,50.6,35.4,51z"/>
</g>
</svg>
