<?xml version="1.0" encoding="utf-8"?>
<!-- Generator: Adobe Illustrator 23.0.2, SVG Export Plug-In . SVG Version: 6.00 Build 0)  -->
<svg version="1.1" id="Layer_1" xmlns="http://www.w3.org/2000/svg" xmlns:xlink="http://www.w3.org/1999/xlink" x="0px" y="0px"
	 viewBox="0 0 96 96" style="enable-background:new 0 0 96 96;" xml:space="preserve">
<style type="text/css">
	.st0{fill:#5B5B5B;}
</style>
<g id="surface1">
	<path class="st0" d="M30.8,11.6c-2.9,0-5.3,2.4-5.3,5.3v25.8c0,1.1,0.9,2,2,2s2-0.9,2-2V16.9c0-0.7,0.6-1.3,1.3-1.3h34.4
		c0.7,0,1.3,0.6,1.3,1.3v30.5h-3.9c0.3-0.6,0.5-1.3,0.5-2v-5.3c0-2.2-1.8-4-4-4H54c-2.2,0-4,1.8-4,4v5.3c0,0.7,0.2,1.4,0.5,2h-5.1
		c0.3-0.6,0.5-1.3,0.5-2v-5.3c0-2.2-1.8-4-4-4h-5.3c-2.2,0-4,1.8-4,4v5.3c0,0.7,0.2,1.4,0.5,2H20.2c-1.1,0-2,0.9-2,2v17.2
		c0,1.1,0.9,2,2,2h2c0.2,0,0.3,0,0.5-0.1c0.1,0,0.2,0,0.3-0.1c0.1-0.1,0.3-0.1,0.4-0.2l0,0l15.4-4.7c1.7-0.5,3.5-0.3,5.1,0.5
		l28,14.8v1.1c0,1.1,0.9,2,2,2s2-0.9,2-2V68.5c1.1,0,2-0.9,2-2V49.3c0-1.1-0.9-2-2-2h-5.3V16.9c0-2.9-2.4-5.3-5.3-5.3H30.8z
		 M36.1,18.9c-1.9,0-3.3,1.5-3.3,3.3v6.6c0,1.9,1.5,3.3,3.3,3.3h6.6c1.9,0,3.3-1.5,3.3-3.3v-6.6c0-1.9-1.5-3.3-3.3-3.3H36.1z
		 M54,18.9c-2.2,0-4,1.8-4,4v5.3c0,2.2,1.8,4,4,4h5.3c2.2,0,4-1.8,4-4v-5.3c0-2.2-1.8-4-4-4H54z M22.2,51.3h51.6v13.1L42.5,54.2
		c-0.6-0.4-1.4-0.5-2.1-0.1l-12.8,7.1c-0.1,0-0.1,0-0.2,0c-0.1,0.1-0.3,0.1-0.4,0.1c-0.1,0.1-0.2,0.1-0.3,0.2
		c-0.1,0.1-0.3,0.2-0.3,0.3c-0.1,0.1-0.1,0.1-0.1,0.1l-4.1,2.3V51.3z M22.2,71.2c-1.1,0-2,0.9-2,2v6.6c0,1.1,0.9,2,2,2
		c1.1,0,2-0.9,2-2v-6.6C24.2,72,23.3,71.2,22.2,71.2z"/>
</g>
</svg>
