<?xml version="1.0" encoding="utf-8"?>
<!-- Generator: Adobe Illustrator 23.0.2, SVG Export Plug-In . SVG Version: 6.00 Build 0)  -->
<svg version="1.1" id="Layer_1" xmlns="http://www.w3.org/2000/svg" xmlns:xlink="http://www.w3.org/1999/xlink" x="0px" y="0px"
	 viewBox="0 0 96 96" style="enable-background:new 0 0 96 96;" xml:space="preserve">
<style type="text/css">
	.st0{fill:#5B5B5B;}
</style>
<g>
	<path class="st0" d="M64.7,54.6c-2.1-0.6-4.2-1.3-6.3-2c-0.3-0.1-0.5-0.4-0.7-0.6c0.2-0.2,0.4-0.3,0.7-0.5c0.7-0.4,1.3-0.8,1.4-1.7
		c0.1-0.9-0.1-1.7-0.9-2.2c-0.6-0.4-0.6-0.7-0.4-1.3c1.4-4.4,2.8-8.9,4.3-13.3c0.2-0.6,0.2-1-0.5-1.2c-0.1,0-0.3-0.2-0.3-0.3
		c0.1-0.8-0.2-1.6,0.4-2.3c0.3-0.4,0.3-0.9,0.6-1.3c0.3-0.5,0.2-0.8-0.4-1.1c-2.1-1-4.1-2-6.1-2.9c-0.5-0.2-0.6-0.5-0.6-1
		c0-0.7,0-1.4-0.1-2.1c0-0.2-0.3-0.6-0.5-0.7c-0.2-0.1-0.5,0.1-0.8,0.3c-0.2,0.1-0.3,0.4-0.4,0.6c-1.2,2-2.4,4.1-3.6,6.1
		c-0.3,0.5-0.6,0.6-1.1,0.4c-0.8-0.3-1.6-0.5-2.3-0.9c-0.3-0.1-0.7-0.5-0.8-0.8c-0.6-1.8-1.2-3.6-1.7-5.4c-0.5-1.5-1-3-0.3-4.6
		c0.6-1.5,0.5-1.5-1-2c-0.7-0.2-1.6-0.3-1.7-1.3c0-0.1-0.2-0.2-0.3-0.2c-0.5-0.2-0.9-0.4-1.4-0.6c-0.3,0.3-0.4,0.5-0.7,0.6
		c-0.9,0.4-1.9,0.8-2.9,1.2c-0.2,0.1-0.5-0.1-0.8-0.1c-0.4,0.3-1,0.8-1.7,1c-1.4,0.5-2.8,0.8-4.3,1.2c-0.4,0.1-0.6,0.3-0.7,0.6
		c-0.2,0.6-0.3,1.2-0.5,1.8c0,0.1,0,0.4,0.1,0.4c0.7,0.6,1.4,1.2,2,1.9c0.3,0.3,0.7,0.7,0.8,1.2c0.6,1.6,1,3.3,1.5,5
		c1.4,4.9,2.9,9.7,4.3,14.6c1.3,4.4,2.6,8.8,3.9,13.2c0.1,0.3,0.1,0.7,0,1c-0.6,2-1.3,4-2,6c-0.8,2.3-1.5,4.7-2.2,7
		c-0.8,2.6-1.6,5.2-2.5,7.7c-0.2,0.5-0.2,1,0.3,1.3c0.3,0.2,1.9-0.3,2-0.6c0,0,0,0,0-0.1c0.1-0.8,0.6-0.7,1.2-0.6
		c6,1.8,12,3.6,18,5.5c1.1,0.3,1.1,0.4,1.3,1.6c-0.2-0.2-0.3-0.4-0.5-0.5c-0.1,0.1-0.1,0.1-0.2,0.2c0.3,0.2,0.5,0.4,0.8,0.6
		c0.2,0.1,0.4,0.2,0.5,0.3c0.3,0.2,0.7,0.7,0.9,0.6c0.3-0.1,0.7-0.5,0.9-0.8c0.4-1,0.7-2,1-3c2.2-6.9,4.5-13.8,6.7-20.7
		C68.1,57.6,67.4,55.4,64.7,54.6z M37,19.1c-0.5,0-0.9-0.2-0.9-0.8c0-0.6,0.3-0.9,0.9-0.9c0.6-0.1,0.8,0.3,0.9,0.8
		C38,18.7,37.6,19.1,37,19.1z M44.9,31.8c-1.8,0.6-3.6,1-5.4,1.6c-0.1,0-0.1,0-0.2,0c-0.1,0-0.1,0.1-0.2,0.1
		c-0.2-0.2-0.5-0.4-0.6-0.7c-0.2-0.7-0.4-1.3-0.5-2c0-0.2,0.2-0.5,0.4-0.6c1.8-0.5,3.5-1,5.3-1.5c0.5-0.1,0.9,0.1,1,0.6
		c0.2,0.6,0.4,1.3,0.5,1.9C45.2,31.4,45.1,31.8,44.9,31.8z M51.6,69.7c-1.9,0-3.4-1.5-3.4-3.4s1.5-3.4,3.4-3.4s3.4,1.5,3.4,3.4
		S53.5,69.7,51.6,69.7z"/>
	<path class="st0" d="M31.4,22.6c0.3,0.9,0.5,1.7,0.8,2.7C30.7,24.5,30.8,24,31.4,22.6z"/>
</g>
</svg>
