<?xml version="1.0" encoding="utf-8"?>
<!-- Generator: Adobe Illustrator 23.0.2, SVG Export Plug-In . SVG Version: 6.00 Build 0)  -->
<svg version="1.1" id="Layer_1" xmlns="http://www.w3.org/2000/svg" xmlns:xlink="http://www.w3.org/1999/xlink" x="0px" y="0px"
	 viewBox="0 0 96 96" style="enable-background:new 0 0 96 96;" xml:space="preserve">
<style type="text/css">
	.st0{fill:#5B5B5B;}
	.st1{font-family:'Roboto-Black';}
	.st2{font-size:15.5949px;}
</style>
<g>
	<path class="st0" d="M82.8,64c-0.7-0.6-1.8-0.4-2.4,0.3c-0.6,0.7-0.4,1.8,0.3,2.4c1.8,1.3,2.7,3.3,2.7,5.4c0,3.7-3.1,6.8-6.8,6.8
		c-0.9,0-1.8-0.2-2.6-0.5c2.3-2.4,3.7-5.6,3.7-9.1c0-7.2-5.8-13-13-13c-7.2,0-13,5.8-13,13c0,7.2,5.8,13,13,13
		c2.3,0,4.5-0.6,6.4-1.6c1.6,1,3.5,1.6,5.6,1.6c5.6,0,10.2-4.6,10.2-10.2C87,69,85.5,65.9,82.8,64z M64.9,79c-5.3,0-9.6-4.3-9.6-9.6
		s4.3-9.6,9.6-9.6s9.6,4.3,9.6,9.6S70.2,79,64.9,79z M64.8,29.7c-1,0-1.7,0.7-1.7,1.7v19.3c0,1,0.7,1.7,1.7,1.7c1,0,1.7-0.7,1.7-1.7
		V31.4C66.5,30.4,65.8,29.7,64.8,29.7z M62.8,14.7c-2.5-2.4-5.8-3.8-9.2-3.8H22.9c-4.1,0-7.4,3.3-7.4,7.4V75c0,4.1,3.3,7.4,7.4,7.4
		h25c1,0,1.7-0.7,1.7-1.7S48.8,79,47.8,79h-25c-2.2,0-4-1.8-4-4V18.3c0-2.2,1.8-4,4-4h28.9v4c0,4.1,3.3,7.4,7.4,7.4h5.7
		c1,0,1.7-0.7,1.7-1.7C66.6,20.5,65.2,17.2,62.8,14.7z M59.2,22.3c-2.2,0-4-1.8-4-4v-3.8c1.9,0.3,3.7,1.2,5.1,2.7
		c1.4,1.4,2.3,3.2,2.7,5.1H59.2z"/>
	<text transform="matrix(1 0 0 1 26.2139 50.8145)" class="st0 st1 st2">RSD</text>
</g>
</svg>
