<?xml version="1.0" encoding="utf-8"?>
<!-- Generator: Adobe Illustrator 23.0.2, SVG Export Plug-In . SVG Version: 6.00 Build 0)  -->
<svg version="1.1" id="Layer_1" xmlns="http://www.w3.org/2000/svg" xmlns:xlink="http://www.w3.org/1999/xlink" x="0px" y="0px"
	 viewBox="0 0 200 90" style="enable-background:new 0 0 200 90;" xml:space="preserve">
<style type="text/css">
	.st0{fill:#666666;}
	.st1{fill:#534741;}
	.st2{fill-rule:evenodd;clip-rule:evenodd;fill:#666666;}
	.st3{fill-rule:evenodd;clip-rule:evenodd;fill:#534741;}
	.st4{fill:#074257;}
	.st5{fill:#0B5B70;}
	.st6{fill-rule:evenodd;clip-rule:evenodd;fill:#074257;}
	.st7{fill-rule:evenodd;clip-rule:evenodd;fill:#0B5B70;}
</style>
<g>
	<path class="st0" d="M158.4,57.6c0-0.1,0-0.2-0.1-0.3c0-0.1,0-0.2-0.1-0.3c0-0.1,0-0.2,0-0.3s0-0.2,0-0.4c0-0.5,0-1,0.1-1.5
		c0-0.1,0.1-0.3,0.1-0.4c0-0.1,0.1-0.3,0.1-0.4v-0.1l0,0l0,0l0,0l0,0l0,0c0-0.1,0-0.1,0.1-0.2c0-0.1,0.1-0.2,0.1-0.4
		c0.1-0.1,0.1-0.3,0.2-0.4c0.1-0.1,0.1-0.3,0.2-0.4c0.1-0.3,0.3-0.5,0.4-0.8c0.3-0.5,0.7-1,1-1.5s0.7-0.9,1-1.4
		c0.3-0.4,0.6-0.9,0.7-1.3c0.1-0.1,0.1-0.2,0.1-0.3s0-0.1,0.1-0.2l0,0l0,0l0,0l0,0l0,0v-0.1c0-0.1,0.1-0.2,0.1-0.4
		c0-0.1,0.1-0.2,0.1-0.3c0.1-0.4,0.2-0.8,0.2-1.2s0-0.7,0-1s-0.1-0.6-0.1-0.8c0-0.1-0.1-0.2-0.1-0.3c-3.1-0.4-6.3,2.1-7.5,5.9
		c-1.3,4.1,0.1,8.2,3.2,9.5C158.5,57.9,158.5,57.7,158.4,57.6 M164.2,43.1c0.1,0.1,0.1,0.3,0.1,0.5c0,0.1,0,0.2,0.1,0.3
		c0,0.1,0,0.2,0.1,0.3c0,0.1,0,0.2,0,0.3s0,0.2,0,0.4c0,0.5,0,1-0.1,1.5c0,0.1-0.1,0.3-0.1,0.4c0,0.1-0.1,0.2-0.1,0.4v0.1l0,0l0,0
		l0,0v0.1c0,0.1,0,0.1-0.1,0.2c0,0.1-0.1,0.3-0.2,0.4c-0.1,0.1-0.1,0.3-0.2,0.4c-0.1,0.1-0.1,0.3-0.2,0.4c-0.1,0.3-0.3,0.5-0.4,0.8
		c-0.3,0.5-0.7,1-1,1.5s-0.7,0.9-1,1.4c-0.1,0.1-0.1,0.2-0.2,0.3c-0.1,0.1-0.1,0.2-0.2,0.3c-0.1,0.1-0.1,0.2-0.2,0.3
		c-0.1,0.1-0.1,0.2-0.2,0.3c-0.1,0.1-0.1,0.2-0.1,0.3s0,0.1-0.1,0.2l0,0l0,0l0,0l0,0v0.1c0,0.1-0.1,0.2-0.1,0.3s-0.1,0.2-0.1,0.3
		c-0.1,0.4-0.2,0.8-0.2,1.2s0,0.7,0,1s0.1,0.6,0.1,0.8c0,0.1,0.1,0.2,0.1,0.3c3.1,0.4,6.3-2.1,7.5-5.9
		C168.8,48.5,167.3,44.3,164.2,43.1z M167.7,72.7l2.2,0.5l0,0l0,0l0,0l0,0l0,0l0.1-0.1c0.1-0.1,0.1-0.1,0.2-0.2
		c0.1-0.1,0.1-0.2,0.2-0.2c0.1-0.1,0.2-0.1,0.2-0.2c0.2-0.1,0.3-0.3,0.5-0.4c0.3-0.2,0.7-0.5,1-0.7s0.6-0.4,0.9-0.6
		c0.3-0.2,0.6-0.4,0.8-0.6c0.1-0.1,0.1-0.1,0.2-0.2l0.1-0.1l0,0l0,0l0,0l0,0l0,0l0,0c0.1-0.1,0.1-0.1,0.2-0.2c0-0.1,0.1-0.1,0.1-0.2
		c0.2-0.2,0.3-0.5,0.5-0.7c0.1-0.2,0.2-0.5,0.3-0.7s0.1-0.4,0.1-0.5s0-0.1,0-0.2c-1.8-1-4.5-0.2-6.2,1.8
		C168.2,70.2,167.7,71.5,167.7,72.7z M179.3,63.1c0.7-1.6,1.4-3.3,2.1-4.9c2.3-5.3,4.6-10.6,6.9-15.9L167.7,38l-0.5,1.7
		c-0.3,0.8,0,1.8,0.8,2.3c0.4,0.3,0.7,0.6,1,0.9c0.6,0.6,1.6,0.8,2.4,0.4l2-1c1-0.5,2.3-0.1,2.8,0.9s0.1,2.3-0.9,2.8l-2,1
		c-0.8,0.4-1.2,1.3-1.1,2.2c0.1,0.4,0.1,0.9,0.1,1.3c0,0.9,0.6,1.7,1.4,2l2.1,0.7c1.1,0.4,1.7,1.5,1.3,2.6s-1.5,1.7-2.6,1.3
		l-2.1-0.7c-0.9-0.3-1.8,0-2.3,0.8c-0.3,0.4-0.6,0.7-0.9,1c-0.6,0.6-0.8,1.6-0.4,2.4l1,2c0.5,1,0.1,2.3-0.9,2.8s-2.3,0.1-2.8-0.9
		l-1-2c-0.4-0.8-1.3-1.2-2.2-1.1c-0.4,0.1-0.9,0.1-1.3,0.1c-0.9,0-1.7,0.6-2,1.4l-0.7,2.1c-0.4,1.1-1.5,1.7-2.6,1.3l0,0
		c-1.1-0.4-1.7-1.5-1.3-2.6l0.7-2.1c0.3-0.8,0-1.8-0.8-2.3c-0.4-0.3-0.7-0.6-1-0.9c-0.6-0.6-1.6-0.8-2.4-0.4l-2,1
		c-1,0.5-2.3,0.1-2.8-0.9l0,0c-0.5-1-0.1-2.3,0.9-2.8l2-1c0.8-0.4,1.2-1.3,1.1-2.2c-0.1-0.4-0.1-0.9-0.1-1.3c0-0.9-0.6-1.7-1.4-2
		l-2.1-0.7c-1.1-0.4-1.7-1.5-1.3-2.6s1.5-1.7,2.6-1.3l2.1,0.7c0.9,0.3,1.8,0,2.3-0.8c0.3-0.4,0.6-0.7,0.9-1c0.6-0.6,0.8-1.6,0.4-2.4
		l-1-2c-0.5-1-0.1-2.3,0.9-2.8s2.3-0.1,2.8,0.9l1,2c0.4,0.8,1.3,1.2,2.2,1.1c0.4-0.1,0.9-0.1,1.3-0.1c0.9,0,1.7-0.6,2-1.4l0.4-1.2
		l-21.9-4.5c0,5.8,0,11.6,0,17.4s-0.1,11.5-0.2,17.3c5.5,1.1,11.1,2.3,16.6,3.4l4,0.8c0.2-0.1,0.4-0.2,0.6-0.2l1.5-0.1
		c0.6-0.1,1.1-0.5,1.2-1.1c0.1-0.3,0.2-0.6,0.3-0.9c0.2-0.6,0.1-1.2-0.4-1.6l-1.2-0.9c-0.6-0.5-0.7-1.4-0.2-2s1.4-0.7,2-0.2l1.2,0.9
		c0.5,0.4,1.1,0.4,1.6,0.1c0.3-0.2,0.5-0.3,0.8-0.4c0.6-0.3,0.9-0.8,0.8-1.4l-0.1-1.5c-0.1-0.8,0.5-1.5,1.3-1.5
		c0.8-0.1,1.4,0.5,1.5,1.3l0.1,1.5c0.1,0.6,0.5,1.1,1.1,1.2c0.3,0.1,0.6,0.2,0.9,0.3c0.6,0.2,1.2,0.1,1.6-0.4l0.9-1.2
		C177.9,62.9,178.7,62.8,179.3,63.1z M174.7,74.2c0.7-1.8,1.4-3.5,2.2-5.3c-0.2-0.4-0.4-0.8-0.8-1.1c0,0.1,0,0.2,0,0.3
		c0,0.1,0,0.1,0,0.2s0,0.1,0,0.2s0,0.1-0.1,0.2c0,0.1-0.1,0.1-0.1,0.2c-0.1,0.3-0.3,0.6-0.5,0.9c-0.1,0.1-0.1,0.2-0.2,0.2
		c-0.1,0.1-0.1,0.1-0.2,0.2v0.1l0,0l0,0l0,0l0,0l-0.1,0.1c-0.1,0.1-0.1,0.2-0.2,0.2c-0.1,0.1-0.1,0.1-0.2,0.2
		c-0.1,0.1-0.2,0.1-0.2,0.2c-0.2,0.1-0.3,0.3-0.5,0.4c-0.3,0.2-0.7,0.5-1,0.7s-0.6,0.4-0.9,0.6c-0.1,0.1-0.1,0.1-0.2,0.2
		c-0.1,0.1-0.1,0.1-0.2,0.2c-0.1,0.1-0.1,0.1-0.2,0.2l0,0L174.7,74.2z"/>
</g>
<g>
	<path class="st1" d="M191.4,39.7L139.8,29c-1.4-0.3-2.1-1.9-1.4-3.2l4.2-7.4l7.3,1.5l2.4-4.1l32.8,6.8l0.6,4.7l7.3,1.5l1,8.4
		C194.2,38.8,192.9,40,191.4,39.7"/>
</g>
<g>
	<path class="st1" d="M172.9,78.5c-5.3-1.1-10.5-2.2-15.8-3.3c-5.3-1.1-10.5-2.2-15.8-3.3c0,1.8-0.1,3.6-0.1,5.4
		c4.9,1,9.9,2,14.8,3.1c4.9,1,9.9,2,14.8,3.1C171.6,81.9,172.2,80.2,172.9,78.5"/>
</g>
<g>
	<path class="st1" d="M24.7,21.3L24.7,21.3c-1,1.5-2.7,2.1-4.4,2.1c-2.6,0-4.9-1.5-4.9-4.2c0-4.8,5.8-4.8,9.3-4.8
		c0-1.5-1.2-2.5-2.7-2.5c-1.4,0-2.5,0.6-3.4,1.6l-2.3-2.3C17.9,9.7,20.1,9,22.4,9c4.9,0,6.3,2.5,6.3,7.1v7h-3.9v-1.8H24.7z M23.6,17
		c-1.3,0-4.2,0.1-4.2,2c0,1,1.1,1.5,2,1.5c1.7,0,3.2-0.9,3.2-2.6V17H23.6z"/>
	<path class="st1" d="M44.5,23h-4.1v-1.9h-0.1c-0.6,1.1-2,2.2-4,2.2c-4.3,0-5.1-2.8-5.1-6.5V9.3h4.2V16c0,1.6,0,3.6,2.2,3.6
		s2.5-1.7,2.5-3.5V9.3h4.2V23H44.5z"/>
	<path class="st1" d="M56.8,12.7h-3.7v4.6c0,1.5,0.2,2.5,2,2.5c0.5,0,1.4-0.1,1.7-0.4v3.5c-0.9,0.3-2,0.4-3,0.4c-2.8,0-5-1.2-5-4.2
		v-6.5h-2.7V9.3h2.7V5.2H53v4.1h3.7L56.8,12.7L56.8,12.7z"/>
	<path class="st1" d="M66.1,8.9c4.2,0,7.6,2.8,7.6,7.2s-3.4,7.2-7.6,7.2s-7.6-2.8-7.6-7.2S61.9,8.9,66.1,8.9z M66.1,19.6
		c2.1,0,3.4-1.4,3.4-3.5s-1.3-3.5-3.4-3.5s-3.4,1.4-3.4,3.5S64,19.6,66.1,19.6z"/>
	<path class="st1" d="M76.2,9.3h4.1v1.9h0.1c0.6-1.1,2-2.2,4-2.2c1.9,0,3.5,0.8,4.2,2.5C89.6,9.7,90.9,9,93,9c3.7,0,4.9,2.6,4.9,6v8
		h-4.2v-8c0-1.3-0.5-2.3-1.9-2.3c-2,0-2.6,1.4-2.6,3.1V23H85v-7.3c0-1,0.1-3.1-1.9-3.1c-2.2,0-2.5,1.7-2.5,3.5V23h-4.2V9.3H76.2z"/>
	<path class="st1" d="M109.4,21.3L109.4,21.3c-1,1.5-2.7,2.1-4.4,2.1c-2.6,0-4.9-1.5-4.9-4.2c0-4.8,5.8-4.8,9.3-4.8
		c0-1.5-1.2-2.5-2.7-2.5c-1.4,0-2.5,0.6-3.5,1.6l-2.3-2.3c1.6-1.5,3.8-2.2,6.1-2.2c4.9,0,6.3,2.5,6.3,7.1v7h-3.9V21.3z M108.4,17
		c-1.3,0-4.2,0.1-4.2,2c0,1,1.1,1.5,2,1.5c1.7,0,3.2-0.9,3.2-2.6V17H108.4z"/>
	<path class="st1" d="M125.4,12.7h-3.7v4.6c0,1.5,0.2,2.5,2,2.5c0.5,0,1.4-0.1,1.7-0.4v3.5c-0.9,0.3-2,0.4-3,0.4c-2.8,0-5-1.2-5-4.2
		v-6.5h-2.7V9.3h2.7V5.2h4.2v4.1h3.7v3.4H125.4z"/>
	<path class="st1" d="M129.7,2.5c1.4,0,2.5,1.1,2.5,2.5s-1.1,2.5-2.5,2.5s-2.5-1.1-2.5-2.5S128.3,2.5,129.7,2.5z M127.6,9.3h4.2V23
		h-4.2C127.6,23,127.6,9.3,127.6,9.3z"/>
</g>
<g>
	<polygon class="st2" points="87.8,70.6 92.8,82.2 78,82.2 78,82.1 	"/>
</g>
<g>
	<polygon class="st3" points="47.5,82.2 41.9,82.2 62.1,35.4 72.5,35.4 77.6,47.1 68.9,57.2 67.3,53.3 63.2,63.8 	"/>
</g>
<g>
	<path class="st2" d="M77.9,47.8l1,2.3l-8.7,10.2l-1-2.3L77.9,47.8z M51.5,82.2h-3l15.3-17.9h3L51.5,82.2z"/>
</g>
<g>
	<path class="st2" d="M59.9,73.6l-3.4,8.6h-4L59.9,73.6z M68,73.1h-7.7l7.5-8.8h3.9l-1.2-3.1L79.2,51l2.6,5.9L68,73.1z"/>
</g>
<g>
	<polygon class="st2" points="72.6,71.4 70.6,71.4 83.7,56.1 84.4,57.7 	"/>
</g>
<g>
	<polygon class="st2" points="74.3,73.1 73.3,73.1 83.6,61 85.2,64.6 75.5,76 	"/>
</g>
<g>
	<polygon class="st2" points="85.6,65.6 86.4,67.4 76.6,78.8 75.9,76.9 	"/>
</g>
<g>
	<polygon class="st2" points="86.7,68 87.5,69.8 77.6,81.3 76.9,79.5 	"/>
</g>
<g>
	<polygon class="st3" points="92.8,69.8 82.1,45 96.6,38.7 101.4,42.1 	"/>
</g>
<g>
	<polygon class="st3" points="127.1,36.9 141.6,70.3 127.5,76.4 117.2,69.1 	"/>
</g>
<g>
	<polygon class="st2" points="94.7,74.1 93.3,70.9 102,42.5 104,43.9 	"/>
</g>
<g>
	<path class="st3" d="M105.6,61l-3.2-2.2l2.2,5.2l-6,19.5L95,75.3l9.5-30.8l5,3.5L105.6,61z M112.9,37.4l-2.1-4.8l4.1-1.8
		L112.9,37.4z"/>
</g>
<g>
	<path class="st2" d="M106.4,61.2l0.9,2.1l-6,19.5l-0.9-2.1L106.4,61.2z M108.9,58.5l-1.3-0.9l4-13.1l1.3,0.9L108.9,58.5z
		 M115.6,36.8l-0.9-2.1l2.6-8.3l1.8-0.8L115.6,36.8z"/>
</g>
<g>
	<path class="st2" d="M107.2,69.6l2.2,5L106,85.7l-4.3,1.9L107.2,69.6z M112.1,65.6l-3.1-2.1l4-13.1l3.1,2.1L112.1,65.6z M117.5,48
		l-2.2-5l4.4-14.4l3.2-1.4l0.6,1.3L117.5,48z"/>
</g>
<g>
	<path class="st2" d="M109.9,75.9l1.1,2.5l-1.8,5.9l-2.1,0.9L109.9,75.9z M114.4,67.2l-1.5-1.1l4-13.1l1.5,1.1L114.4,67.2z
		 M119.2,51.9l-1.1-2.5l6-19.5l1.1,2.5L119.2,51.9z"/>
</g>
<g>
	<path class="st2" d="M111.4,79.3l1.1,2.5l-0.4,1.2l-2.1,0.9L111.4,79.3z M116.5,68.6l-1.5-1.1l4-13.1l1.5,1.1L116.5,68.6z
		 M120.7,55.3l-1.1-2.5l6-19.5l1.1,2.5L120.7,55.3z"/>
</g>
<g>
	<polygon class="st2" points="23.7,36.1 24.6,34 26.4,34.8 	"/>
</g>
<g>
	<polygon class="st3" points="33.5,57 35.1,57.6 37.2,58.6 46.3,62.5 41.3,74 24.8,66.8 18.1,82.2 6,76.9 7.7,72.9 8.8,70.4 
		9.6,68.6 	"/>
</g>
<g>
	<polygon class="st2" points="52.9,51 49.6,58.5 43.2,55.7 41,54.8 39.5,54.1 54.3,46.9 54.6,47 53.9,48.5 	"/>
</g>
<g>
	<polygon class="st2" points="21.9,40.3 23.1,37.5 23.3,37.1 27.3,35.1 27.7,35.3 30.1,36.3 	"/>
</g>
<g>
	<polygon class="st2" points="17.8,49.7 20.6,43.2 21.4,41.4 31,36.8 32.6,37.4 38.1,39.8 	"/>
</g>
<g>
	<polygon class="st2" points="19.6,51.5 20.3,49.9 20.5,49.3 42.4,38.7 42.9,38.9 44.2,39.5 	"/>
</g>
<g>
	<polygon class="st2" points="32.4,51 31.8,50.7 31.5,51.4 13.2,60.3 14.2,57.9 15.2,55.8 15.3,55.3 42.9,41.9 43.3,42.1 45.1,42.9 
		47.2,43.8 	"/>
</g>
<g>
	<path class="st2" d="M30.9,52.7L30.4,54l-0.5,1.2l-18.3,8.9l0.5-1.2l0.6-1.3L30.9,52.7z M35.6,52.4l-1-0.5l-1.1-0.5l14.8-7.2
		l1.1,0.5l1,0.5L35.6,52.4z"/>
</g>
<g>
	<path class="st2" d="M30.5,55.6l2.1,0.9L10,67.6l1.1-2.5L30.5,55.6z M38.6,53.7l-2.1-0.9l14.8-7.2l2.1,0.9L38.6,53.7z"/>
</g>
<g>
	<path class="st4" d="M-36-110c0-0.1,0-0.1-0.1-0.2c0-0.1,0-0.1-0.1-0.2c0-0.1,0-0.1,0-0.2c0-0.1,0-0.1,0-0.3c0-0.3,0-0.7,0.1-1
		c0-0.1,0.1-0.2,0.1-0.3s0.1-0.2,0.1-0.3v-0.1l0,0l0,0l0,0l0,0l0,0c0-0.1,0-0.1,0.1-0.1c0-0.1,0.1-0.1,0.1-0.3
		c0.1-0.1,0.1-0.2,0.1-0.3c0.1-0.1,0.1-0.2,0.1-0.3c0.1-0.2,0.2-0.3,0.3-0.5c0.2-0.3,0.5-0.7,0.7-1c0.2-0.3,0.5-0.6,0.7-0.9
		c0.2-0.3,0.4-0.6,0.5-0.9c0.1-0.1,0.1-0.1,0.1-0.2c0-0.1,0-0.1,0.1-0.1l0,0l0,0l0,0l0,0l0,0v-0.1c0-0.1,0.1-0.1,0.1-0.3
		c0-0.1,0.1-0.1,0.1-0.2c0.1-0.3,0.1-0.5,0.1-0.8c0-0.3,0-0.5,0-0.7s-0.1-0.4-0.1-0.5c0-0.1-0.1-0.1-0.1-0.2c-2.1-0.3-4.2,1.4-5,4
		c-0.9,2.7,0.1,5.5,2.1,6.4C-36-109.8-36-109.9-36-110 M-32.2-119.7c0.1,0.1,0.1,0.2,0.1,0.3c0,0.1,0,0.1,0.1,0.2
		c0,0.1,0,0.1,0.1,0.2c0,0.1,0,0.1,0,0.2c0,0.1,0,0.1,0,0.3c0,0.3,0,0.7-0.1,1c0,0.1-0.1,0.2-0.1,0.3c0,0.1-0.1,0.1-0.1,0.3v0.1l0,0
		l0,0l0,0v0.1c0,0.1,0,0.1-0.1,0.1c0,0.1-0.1,0.2-0.1,0.3c-0.1,0.1-0.1,0.2-0.1,0.3c-0.1,0.1-0.1,0.2-0.1,0.3
		c-0.1,0.2-0.2,0.3-0.3,0.5c-0.2,0.3-0.5,0.7-0.7,1c-0.2,0.3-0.5,0.6-0.7,0.9c-0.1,0.1-0.1,0.1-0.1,0.2c-0.1,0.1-0.1,0.1-0.1,0.2
		c-0.1,0.1-0.1,0.1-0.1,0.2c-0.1,0.1-0.1,0.1-0.1,0.2c-0.1,0.1-0.1,0.1-0.1,0.2c0,0.1,0,0.1-0.1,0.1l0,0l0,0l0,0l0,0v0.1
		c0,0.1-0.1,0.1-0.1,0.2c0,0.1-0.1,0.1-0.1,0.2c-0.1,0.3-0.1,0.5-0.1,0.8s0,0.5,0,0.7c0,0.2,0.1,0.4,0.1,0.5c0,0.1,0.1,0.1,0.1,0.2
		c2.1,0.3,4.2-1.4,5-4C-29.1-116.1-30.1-118.9-32.2-119.7z M-29.8-99.9l1.5,0.3l0,0l0,0l0,0l0,0l0,0l0.1-0.1
		c0.1-0.1,0.1-0.1,0.1-0.1c0.1-0.1,0.1-0.1,0.1-0.1c0.1-0.1,0.1-0.1,0.1-0.1c0.1-0.1,0.2-0.2,0.3-0.3c0.2-0.1,0.5-0.3,0.7-0.5
		s0.4-0.3,0.6-0.4c0.2-0.1,0.4-0.3,0.5-0.4c0.1-0.1,0.1-0.1,0.1-0.1l0.1-0.1l0,0l0,0l0,0l0,0l0,0l0,0c0.1-0.1,0.1-0.1,0.1-0.1
		c0-0.1,0.1-0.1,0.1-0.1c0.1-0.1,0.2-0.3,0.3-0.5c0.1-0.1,0.1-0.3,0.2-0.5c0.1-0.1,0.1-0.3,0.1-0.3c0-0.1,0-0.1,0-0.1
		c-1.2-0.7-3-0.1-4.2,1.2C-29.5-101.5-29.8-100.7-29.8-99.9z M-22-106.3c0.5-1.1,0.9-2.2,1.4-3.3c1.5-3.6,3.1-7.1,4.6-10.7
		l-13.8-2.9l-0.3,1.1c-0.2,0.5,0,1.2,0.5,1.5c0.3,0.2,0.5,0.4,0.7,0.6c0.4,0.4,1.1,0.5,1.6,0.3l1.3-0.7c0.7-0.3,1.5-0.1,1.9,0.6
		c0.3,0.7,0.1,1.5-0.6,1.9l-1.3,0.7c-0.5,0.3-0.8,0.9-0.7,1.5c0.1,0.3,0.1,0.6,0.1,0.9c0,0.6,0.4,1.1,0.9,1.3l1.4,0.5
		c0.7,0.3,1.1,1,0.9,1.7c-0.3,0.7-1,1.1-1.7,0.9l-1.4-0.5c-0.6-0.2-1.2,0-1.5,0.5c-0.2,0.3-0.4,0.5-0.6,0.7
		c-0.4,0.4-0.5,1.1-0.3,1.6l0.7,1.3c0.3,0.7,0.1,1.5-0.6,1.9c-0.7,0.3-1.5,0.1-1.9-0.6l-0.7-1.3c-0.3-0.5-0.9-0.8-1.5-0.7
		c-0.3,0.1-0.6,0.1-0.9,0.1c-0.6,0-1.1,0.4-1.3,0.9l-0.5,1.4c-0.3,0.7-1,1.1-1.7,0.9l0,0c-0.7-0.3-1.1-1-0.9-1.7l0.5-1.4
		c0.2-0.5,0-1.2-0.5-1.5c-0.3-0.2-0.5-0.4-0.7-0.6c-0.4-0.4-1.1-0.5-1.6-0.3l-1.3,0.7c-0.7,0.3-1.5,0.1-1.9-0.6l0,0
		c-0.3-0.7-0.1-1.5,0.6-1.9l1.3-0.7c0.5-0.3,0.8-0.9,0.7-1.5c-0.1-0.3-0.1-0.6-0.1-0.9c0-0.6-0.4-1.1-0.9-1.3l-1.4-0.5
		c-0.7-0.3-1.1-1-0.9-1.7c0.3-0.7,1-1.1,1.7-0.9l1.4,0.5c0.6,0.2,1.2,0,1.5-0.5c0.2-0.3,0.4-0.5,0.6-0.7c0.4-0.4,0.5-1.1,0.3-1.6
		l-0.7-1.3c-0.3-0.7-0.1-1.5,0.6-1.9c0.7-0.3,1.5-0.1,1.9,0.6l0.7,1.3c0.3,0.5,0.9,0.8,1.5,0.7c0.3-0.1,0.6-0.1,0.9-0.1
		c0.6,0,1.1-0.4,1.3-0.9l0.3-0.8l-14.7-3c0,3.9,0,7.8,0,11.7s-0.1,7.7-0.1,11.6c3.7,0.7,7.4,1.5,11.1,2.3l2.7,0.5
		c0.1-0.1,0.3-0.1,0.4-0.1l1-0.1c0.4-0.1,0.7-0.3,0.8-0.7c0.1-0.2,0.1-0.4,0.2-0.6c0.1-0.4,0.1-0.8-0.3-1.1l-0.8-0.6
		c-0.4-0.3-0.5-0.9-0.1-1.3c0.3-0.4,0.9-0.5,1.3-0.1l0.8,0.6c0.3,0.3,0.7,0.3,1.1,0.1c0.2-0.1,0.3-0.2,0.5-0.3
		c0.4-0.2,0.6-0.5,0.5-0.9l-0.1-1c-0.1-0.5,0.3-1,0.9-1c0.5-0.1,0.9,0.3,1,0.9l0.1,1c0.1,0.4,0.3,0.7,0.7,0.8
		c0.2,0.1,0.4,0.1,0.6,0.2c0.4,0.1,0.8,0.1,1.1-0.3l0.6-0.8C-23-106.4-22.4-106.5-22-106.3z M-25.1-98.9c0.5-1.2,0.9-2.3,1.5-3.6
		c-0.1-0.3-0.3-0.5-0.5-0.7c0,0.1,0,0.1,0,0.2s0,0.1,0,0.1c0,0.1,0,0.1,0,0.1c0,0.1,0,0.1-0.1,0.1c0,0.1-0.1,0.1-0.1,0.1
		c-0.1,0.2-0.2,0.4-0.3,0.6c-0.1,0.1-0.1,0.1-0.1,0.1c-0.1,0.1-0.1,0.1-0.1,0.1v0.1l0,0l0,0l0,0l0,0l-0.1,0.1
		c-0.1,0.1-0.1,0.1-0.1,0.1c-0.1,0.1-0.1,0.1-0.1,0.1c-0.1,0.1-0.1,0.1-0.1,0.1c-0.1,0.1-0.2,0.2-0.3,0.3c-0.2,0.1-0.5,0.3-0.7,0.5
		s-0.4,0.3-0.6,0.4c-0.1,0.1-0.1,0.1-0.1,0.1c-0.1,0.1-0.1,0.1-0.1,0.1c-0.1,0.1-0.1,0.1-0.1,0.1l0,0L-25.1-98.9z"/>
</g>
<g>
	<path class="st5" d="M-13.9-122l-34.6-7.2c-0.9-0.2-1.4-1.3-0.9-2.1l2.8-5l4.9,1l1.6-2.7l22,4.6l0.4,3.1l4.9,1l0.7,5.6
		C-12.1-122.6-12.9-121.8-13.9-122"/>
</g>
<g>
	<path class="st5" d="M-26.3-96c-3.6-0.7-7-1.5-10.6-2.2c-3.6-0.7-7-1.5-10.6-2.2c0,1.2-0.1,2.4-0.1,3.6c3.3,0.7,6.6,1.3,9.9,2.1
		c3.3,0.7,6.6,1.3,9.9,2.1C-27.2-93.7-26.8-94.8-26.3-96"/>
</g>
<g>
	<path class="st5" d="M-125.6-134.3L-125.6-134.3c-0.7,1-1.8,1.4-2.9,1.4c-1.7,0-3.3-1-3.3-2.8c0-3.2,3.9-3.2,6.2-3.2
		c0-1-0.8-1.7-1.8-1.7c-0.9,0-1.7,0.4-2.3,1.1l-1.5-1.5c1.1-1,2.5-1.5,4.1-1.5c3.3,0,4.2,1.7,4.2,4.8v4.7h-2.6L-125.6-134.3
		L-125.6-134.3z M-126.4-137.2c-0.9,0-2.8,0.1-2.8,1.3c0,0.7,0.7,1,1.3,1c1.1,0,2.1-0.6,2.1-1.7v-0.6H-126.4z"/>
	<path class="st5" d="M-112.4-133.2h-2.7v-1.3h-0.1c-0.4,0.7-1.3,1.5-2.7,1.5c-2.9,0-3.4-1.9-3.4-4.4v-5h2.8v4.5
		c0,1.1,0,2.4,1.5,2.4c1.5,0,1.7-1.1,1.7-2.3v-4.6h2.8v9.2H-112.4z"/>
	<path class="st5" d="M-104.1-140.1h-2.5v3.1c0,1,0.1,1.7,1.3,1.7c0.3,0,0.9-0.1,1.1-0.3v2.3c-0.6,0.2-1.3,0.3-2,0.3
		c-1.9,0-3.4-0.8-3.4-2.8v-4.4h-1.8v-2.2h1.8v-2.7h2.8v2.7h2.5L-104.1-140.1L-104.1-140.1z"/>
	<path class="st5" d="M-97.9-142.6c2.8,0,5.1,1.9,5.1,4.8c0,2.9-2.3,4.8-5.1,4.8c-2.8,0-5.1-1.9-5.1-4.8
		C-103-140.7-100.7-142.6-97.9-142.6z M-97.9-135.5c1.4,0,2.3-0.9,2.3-2.3c0-1.4-0.9-2.3-2.3-2.3c-1.4,0-2.3,0.9-2.3,2.3
		C-100.2-136.4-99.3-135.5-97.9-135.5z"/>
	<path class="st5" d="M-91.1-142.4h2.7v1.3h0.1c0.4-0.7,1.3-1.5,2.7-1.5c1.3,0,2.3,0.5,2.8,1.7c0.7-1.2,1.5-1.7,2.9-1.7
		c2.5,0,3.3,1.7,3.3,4v5.4h-2.8v-5.4c0-0.9-0.3-1.5-1.3-1.5c-1.3,0-1.7,0.9-1.7,2.1v4.8h-2.8v-4.9c0-0.7,0.1-2.1-1.3-2.1
		c-1.5,0-1.7,1.1-1.7,2.3v4.6H-91v-9.2H-91.1z"/>
	<path class="st5" d="M-68.9-134.3L-68.9-134.3c-0.7,1-1.8,1.4-2.9,1.4c-1.7,0-3.3-1-3.3-2.8c0-3.2,3.9-3.2,6.2-3.2
		c0-1-0.8-1.7-1.8-1.7c-0.9,0-1.7,0.4-2.3,1.1l-1.5-1.5c1.1-1,2.5-1.5,4.1-1.5c3.3,0,4.2,1.7,4.2,4.8v4.7h-2.6V-134.3z M-69.6-137.2
		c-0.9,0-2.8,0.1-2.8,1.3c0,0.7,0.7,1,1.3,1c1.1,0,2.1-0.6,2.1-1.7v-0.6H-69.6z"/>
	<path class="st5" d="M-58.2-140.1h-2.5v3.1c0,1,0.1,1.7,1.3,1.7c0.3,0,0.9-0.1,1.1-0.3v2.3c-0.6,0.2-1.3,0.3-2,0.3
		c-1.9,0-3.4-0.8-3.4-2.8v-4.4h-1.8v-2.2h1.8v-2.7h2.8v2.7h2.5L-58.2-140.1L-58.2-140.1z"/>
	<path class="st5" d="M-55.3-146.9c0.9,0,1.7,0.7,1.7,1.7c0,0.9-0.7,1.7-1.7,1.7c-0.9,0-1.7-0.7-1.7-1.7
		C-57-146.2-56.2-146.9-55.3-146.9z M-56.7-142.4h2.8v9.2h-2.8C-56.7-133.2-56.7-142.4-56.7-142.4z"/>
</g>
<g>
	<polygon class="st6" points="-83.4,-101.3 -80,-93.5 -89.9,-93.5 -89.9,-93.6 	"/>
</g>
<g>
	<polygon class="st7" points="-110.4,-93.5 -114.1,-93.5 -100.6,-124.9 -93.6,-124.9 -90.2,-117 -96,-110.3 -97.1,-112.9 
		-99.8,-105.8 	"/>
</g>
<g>
	<path class="st6" d="M-90-116.6l0.7,1.5l-5.8,6.8l-0.7-1.5L-90-116.6z M-107.7-93.5h-2l10.3-12h2L-107.7-93.5z"/>
</g>
<g>
	<path class="st6" d="M-102.1-99.3l-2.3,5.8h-2.7L-102.1-99.3z M-96.6-99.6h-5.2l5-5.9h2.6l-0.8-2.1l5.8-6.8l1.7,4L-96.6-99.6z"/>
</g>
<g>
	<polygon class="st6" points="-93.5,-100.7 -94.9,-100.7 -86.1,-111 -85.6,-109.9 	"/>
</g>
<g>
	<polygon class="st6" points="-92.4,-99.6 -93.1,-99.6 -86.2,-107.7 -85.1,-105.3 -91.6,-97.7 	"/>
</g>
<g>
	<polygon class="st6" points="-84.8,-104.6 -84.3,-103.4 -90.9,-95.8 -91.3,-97.1 	"/>
</g>
<g>
	<polygon class="st6" points="-84.1,-103 -83.6,-101.8 -90.2,-94.1 -90.7,-95.3 	"/>
</g>
<g>
	<polygon class="st7" points="-80,-101.8 -87.2,-118.4 -77.5,-122.7 -74.2,-120.4 	"/>
</g>
<g>
	<polygon class="st7" points="-57,-123.9 -47.3,-101.5 -56.8,-97.4 -63.7,-102.3 	"/>
</g>
<g>
	<polygon class="st6" points="-78.7,-98.9 -79.7,-101.1 -73.8,-120.1 -72.5,-119.2 	"/>
</g>
<g>
	<path class="st6" d="M-71.4-107.7l-2.1-1.5l1.5,3.5l-4,13.1l-2.4-5.5l6.4-20.6l3.4,2.3L-71.4-107.7z M-66.5-123.5l-1.4-3.2l2.7-1.2
		L-66.5-123.5z"/>
</g>
<g>
	<path class="st6" d="M-70.9-107.6l0.6,1.4l-4,13.1l-0.6-1.4L-70.9-107.6z M-69.2-109.4l-0.9-0.6l2.7-8.8l0.9,0.6L-69.2-109.4z
		 M-64.7-123.9l-0.6-1.4l1.7-5.6l1.2-0.5L-64.7-123.9z"/>
</g>
<g>
	<path class="st6" d="M-70.4-101.9l1.5,3.4l-2.3,7.4l-2.9,1.3L-70.4-101.9z M-67.1-104.6l-2.1-1.4l2.7-8.8l2.1,1.4L-67.1-104.6z
		 M-63.5-116.4l-1.5-3.4l2.9-9.7l2.1-0.9l0.4,0.9L-63.5-116.4z"/>
</g>
<g>
	<path class="st6" d="M-68.5-97.7l0.7,1.7l-1.2,4l-1.4,0.6L-68.5-97.7z M-65.5-103.6l-1-0.7l2.7-8.8l1,0.7L-65.5-103.6z
		 M-62.3-113.8l-0.7-1.7l4-13.1l0.7,1.7L-62.3-113.8z"/>
</g>
<g>
	<path class="st6" d="M-67.5-95.4l0.7,1.7l-0.3,0.8l-1.4,0.6L-67.5-95.4z M-64.1-102.6l-1-0.7l2.7-8.8l1,0.7L-64.1-102.6z
		 M-61.3-111.5l-0.7-1.7l4-13.1l0.7,1.7L-61.3-111.5z"/>
</g>
<g>
	<polygon class="st6" points="-126.3,-124.4 -125.7,-125.8 -124.5,-125.3 	"/>
</g>
<g>
	<polygon class="st7" points="-119.7,-110.4 -118.7,-110 -117.3,-109.3 -111.2,-106.7 -114.5,-99 -125.6,-103.8 -130.1,-93.5 
		-138.2,-97.1 -137,-99.7 -136.3,-101.4 -135.8,-102.6 	"/>
</g>
<g>
	<polygon class="st7" points="-106.7,-114.4 -109,-109.4 -113.2,-111.3 -114.7,-111.9 -115.7,-112.3 -105.8,-117.2 -105.6,-117.1 
		-106.1,-116.1 	"/>
</g>
<g>
	<polygon class="st6" points="-127.5,-121.6 -126.7,-123.5 -126.6,-123.7 -123.9,-125.1 -123.6,-124.9 -122,-124.3 	"/>
</g>
<g>
	<polygon class="st6" points="-130.3,-115.3 -128.4,-119.6 -127.9,-120.8 -121.4,-123.9 -120.3,-123.5 -116.7,-121.9 	"/>
</g>
<g>
	<polygon class="st6" points="-129.1,-114.1 -128.6,-115.1 -128.5,-115.6 -113.8,-122.7 -113.4,-122.5 -112.6,-122.1 	"/>
</g>
<g>
	<polygon class="st6" points="-120.5,-114.4 -120.9,-114.6 -121.1,-114.1 -133.3,-108.2 -132.7,-109.8 -132,-111.2 -131.9,-111.5 
		-113.4,-120.5 -113.2,-120.4 -112,-119.8 -110.6,-119.2 	"/>
</g>
<g>
	<path class="st6" d="M-121.5-113.3l-0.3,0.9l-0.3,0.8l-12.3,6l0.3-0.8l0.4-0.9L-121.5-113.3z M-118.3-113.5l-0.7-0.3l-0.7-0.3
		l9.9-4.8l0.7,0.3l0.7,0.3L-118.3-113.5z"/>
</g>
<g>
	<path class="st6" d="M-121.8-111.3l1.4,0.6l-15.1,7.4l0.7-1.7L-121.8-111.3z M-116.3-112.6l-1.4-0.6l9.9-4.8l1.4,0.6L-116.3-112.6z
		"/>
</g>
</svg>
